<svg width="195" height="85" viewBox="0 0 195 85" fill="none" xmlns="http://www.w3.org/2000/svg">
<g clip-path="url(#clip0_637_16713)">
<path d="M97.5727 60.0208H86.3697V55.3216C83.6018 58.7486 79.4738 61.1181 73.6317 61.1181C61.9037 61.1181 53.0312 51.5009 53.0312 38.7231C53.0312 25.9453 61.9037 16.3281 73.6317 16.3281C79.4738 16.3281 84.0472 18.6618 86.3697 22.4745V17.4691H97.5727V60.0208ZM64.7592 38.7231C64.7592 45.2234 69.0184 50.4474 75.7394 50.4474C82.4604 50.4474 86.7197 45.442 86.7197 38.7231C86.7197 32.0042 82.2815 26.9988 75.7394 26.9988C69.1974 26.9988 64.7592 32.2229 64.7592 38.7231Z" fill="white"/>
<path d="M145.395 32.9305V60.0247H133.929V36.6199C133.929 30.4735 130.855 27.0902 125.625 27.0902C120.706 27.0902 116.622 30.2946 116.622 36.7074V60.0247H105.156V17.4731H116.311V22.4784C119.342 17.9541 123.999 16.332 128.831 16.332C138.495 16.332 145.391 23.0509 145.391 32.9305H145.395Z" fill="white"/>
<path d="M31.3222 16.3281C26.6652 16.3281 22.1435 17.823 19.1091 22.0372V0L0 0L0 10.6747H7.6476L7.6476 60.0248H19.113V36.7074C19.113 30.2947 23.1973 27.0903 28.1168 27.0903C33.3424 27.0903 36.4206 30.4696 36.4206 36.62V60.0248H47.886V32.9305C47.886 23.051 40.99 16.3321 31.3261 16.3321L31.3222 16.3281Z" fill="white"/>
<path d="M185.049 52.7685C191.134 49.5959 193.838 43.9425 194.009 37.9432C194.176 33.7449 192.677 29.0655 189.679 25.7578L195.004 19.3291L186.326 12.5625L181.765 18.5618C179.681 17.3532 175.477 16.2599 172.522 16.2599C161.212 16.2599 150.609 23.3763 150.609 37.7723C150.609 50.8841 159.438 58.7877 172.522 58.7877C180.043 58.7877 182.83 62.5248 182.83 66.6397C182.83 71.1242 178.834 74.3247 172.749 74.3247C167.169 74.3247 163.316 71.7723 162.659 65.6219H151.198C151.198 77.2229 158.631 84.9994 172.351 84.9994C184.421 84.9994 194.347 77.9584 194.347 66.3932C194.347 63.9084 194.347 56.9669 185.049 52.7685ZM172.307 48.121C166.044 48.121 162.075 43.4018 162.075 37.5298C162.075 31.6577 166.044 26.9386 172.307 26.9386C178.571 26.9386 182.54 31.4589 182.54 37.5298C182.54 43.6006 178.404 48.121 172.307 48.121Z" fill="white"/>
</g>
<defs>
<clipPath id="clip0_637_16713">
<rect width="195" height="85" fill="white"/>
</clipPath>
</defs>
</svg>
