<svg width="1290" height="281" viewBox="0 0 1290 281" fill="none" xmlns="http://www.w3.org/2000/svg">
<g clip-path="url(#clip0_793_20501)">
<path d="M1289.58 176.391C1289.85 176.391 1290 176.54 1290 176.876V209.219C1290 209.498 1289.85 209.665 1289.58 209.665H1284.6C1284.31 209.665 1284.16 209.516 1284.16 209.219V190.234L1275.89 209.405C1275.84 209.573 1275.63 209.665 1275.32 209.665H1271.82C1271.61 209.665 1271.46 209.573 1271.4 209.405L1263.14 190.234V209.219C1263.14 209.498 1262.98 209.665 1262.66 209.665H1257.62C1257.31 209.665 1257.15 209.516 1257.15 209.219V176.876C1257.15 176.558 1257.31 176.391 1257.62 176.391H1262.32C1262.51 176.391 1262.66 176.522 1262.73 176.782L1272.37 198.078C1272.44 198.189 1272.48 198.356 1272.53 198.599C1272.58 198.841 1272.65 199.028 1272.7 199.177L1273.55 202.176L1274.45 199.177C1274.51 199.028 1274.56 198.841 1274.61 198.599C1274.69 198.375 1274.74 198.189 1274.8 198.078L1284.39 176.782C1284.48 176.522 1284.63 176.391 1284.87 176.391H1289.56H1289.58ZM1252.98 176.391C1253.25 176.391 1253.4 176.54 1253.4 176.876V180.62C1253.4 180.899 1253.25 181.049 1252.98 181.049H1242.84V209.219C1242.84 209.498 1242.7 209.665 1242.4 209.665H1237.42C1237.07 209.665 1236.9 209.516 1236.9 209.219V181.049H1226.88C1226.57 181.049 1226.41 180.899 1226.41 180.62V176.876C1226.41 176.558 1226.56 176.391 1226.88 176.391H1252.98Z" fill="#999999"/>
<path d="M355.55 59.5392H335.821C333.193 59.5392 331.623 61.1414 331.623 63.8242L331.696 80.5733C328.447 73.6986 323.848 68.2583 317.934 64.3458C310.178 59.2411 299.081 56.6328 284.973 56.6328C265.773 56.6328 250.222 64.085 238.742 78.8033C227.353 93.4284 221.586 112.935 221.586 136.745C221.586 160.555 227.39 179.354 238.851 193.103C250.369 206.927 265.882 213.932 284.973 213.932C299.099 213.932 310.141 211.547 317.77 206.833C323.702 203.164 328.374 198.059 331.714 191.594L331.641 206.759C331.641 209.441 333.21 211.044 335.838 211.044H355.568C358.197 211.044 359.766 209.441 359.766 206.759V63.8242C359.766 61.1414 358.197 59.5392 355.568 59.5392H355.55ZM260.625 95.0307C267.269 85.175 277.417 80.1633 290.831 80.1633C304.246 80.1633 314.23 85.1564 320.799 95.0307C327.498 105.073 330.893 119.12 330.893 136.763C330.893 154.407 327.534 167.56 320.891 176.746C314.339 185.836 304.227 190.439 290.831 190.439C263.692 190.439 250.495 172.87 250.495 136.763C250.495 119.12 253.909 105.092 260.644 95.0494" fill="#999999"/>
<path d="M504.775 -0.00390625H486.56C485.337 -0.00390625 484.296 0.4246 483.475 1.26299C482.655 2.10137 482.234 3.16332 482.234 4.41157V83.1823C479.04 75.6741 474.459 69.6936 468.509 65.334C460.661 59.5585 449.181 56.6335 434.362 56.6335C415.143 56.6335 399.574 64.0857 388.058 78.804C376.632 93.4291 370.828 112.935 370.828 136.764C370.828 160.593 376.651 179.373 388.148 193.122C399.72 206.946 415.271 213.952 434.362 213.952C448.487 213.952 459.511 211.566 467.14 206.853C473.072 203.183 477.763 198.041 481.102 191.557V206.779C481.102 209.461 482.727 211.064 485.428 211.064H504.793C507.512 211.064 509.118 209.461 509.118 206.779V4.41157C509.118 3.16332 508.699 2.10137 507.859 1.26299C507.038 0.4246 505.997 -0.00390625 504.775 -0.00390625ZM409.978 95.0314C416.602 85.1757 426.768 80.164 440.165 80.164C453.562 80.164 463.527 85.1571 470.06 95.0314C476.704 105.073 480.081 119.103 480.081 136.764C480.081 172.889 467.012 190.439 440.147 190.439C413.281 190.439 399.812 172.889 399.812 136.764C399.812 119.121 403.225 105.073 409.959 95.0501" fill="#999999"/>
<path d="M598.221 56.6335C585.117 56.6335 574.111 59.5213 565.533 65.2222C558.871 69.6377 553.779 75.4878 550.329 82.6792V4.41157C550.329 1.59834 548.796 -0.00390625 546.132 -0.00390625H527.643C524.979 -0.00390625 523.445 1.61696 523.445 4.41157V206.76C523.445 209.443 525.015 211.045 527.643 211.045H548.139C550.767 211.045 552.337 209.443 552.337 206.76V135.292C552.429 115.394 555.86 101.049 562.576 92.6467C569.183 84.356 579.039 80.164 591.833 80.164C604.627 80.164 613.697 84.2069 618.973 92.1809C624.338 100.341 627.003 114.836 626.912 135.274L626.638 206.741C626.638 209.424 628.208 211.026 630.836 211.026H651.606C654.234 211.026 655.803 209.424 655.803 206.741V135.255C655.128 83.0705 635.781 56.6149 598.257 56.6149" fill="#999999"/>
<path d="M798.441 59.5392H778.803C776.175 59.5392 774.605 61.1414 774.605 63.8242V80.6478C771.356 73.7545 766.757 68.2769 760.825 64.3459C753.068 59.2411 741.972 56.6328 727.863 56.6328C708.646 56.6328 693.095 64.085 681.634 78.8033C670.244 93.4284 664.477 112.916 664.477 136.763C664.477 160.611 670.281 179.372 681.743 193.122C693.259 206.946 708.772 213.951 727.863 213.951C741.99 213.951 753.032 211.566 760.662 206.852C766.611 203.182 771.283 198.059 774.624 191.556V206.759C774.624 209.441 776.193 211.044 778.822 211.044H798.46C801.088 211.044 802.657 209.441 802.657 206.759V63.8242C802.657 61.1414 801.088 59.5392 798.46 59.5392H798.441ZM703.517 95.0307C710.142 85.175 720.308 80.1633 733.723 80.1633C747.137 80.1633 757.103 85.1564 763.691 95.0307C770.389 105.073 773.784 119.12 773.784 136.763C773.784 154.407 770.426 167.56 763.8 176.746C757.248 185.836 747.137 190.439 733.723 190.439C706.565 190.439 693.368 172.87 693.368 136.763C693.368 119.138 696.782 105.092 703.517 95.0494" fill="#999999"/>
<path d="M891.888 56.6328C877.761 56.6328 866.737 59.0175 859.108 63.7311C853.176 67.4014 848.485 72.5435 845.146 79.0456V63.8242C845.146 61.1414 843.521 59.5392 840.802 59.5392H821.328C818.608 59.5392 816.984 61.1414 816.984 63.8242V266.153C816.984 267.402 817.404 268.464 818.225 269.322C819.046 270.159 820.123 270.607 821.328 270.607H839.524C840.729 270.607 841.805 270.159 842.609 269.322C843.43 268.483 843.85 267.421 843.85 266.153V187.364C847.062 194.891 851.679 200.891 857.666 205.269C865.568 211.025 877.085 213.951 891.888 213.951C911.124 213.951 926.674 206.498 938.117 191.78C949.488 177.173 955.256 157.685 955.256 133.857C955.256 110.029 949.452 91.2114 938.008 77.4805C926.492 63.6566 910.977 56.6514 891.888 56.6514V56.6328ZM926.255 133.857C926.255 151.519 922.859 165.548 916.179 175.553C909.591 185.427 899.461 190.439 886.065 190.439C872.669 190.439 862.667 185.427 856.078 175.553C849.38 165.548 846.003 151.5 846.003 133.857C846.003 116.214 849.361 103.042 855.987 93.8384C862.503 84.7652 872.632 80.1633 886.065 80.1633C913.113 80.1633 926.272 97.7136 926.272 133.839" fill="#999999"/>
<path d="M1037.04 56.6328C1022.91 56.6328 1011.89 59.0175 1004.26 63.7311C998.325 67.4014 993.635 72.5435 990.294 79.0456V63.8242C990.294 61.1414 988.67 59.5392 985.951 59.5392H966.476C963.757 59.5392 962.133 61.1414 962.133 63.8242V266.153C962.133 267.402 962.553 268.464 963.374 269.322C964.195 270.159 965.272 270.607 966.476 270.607H984.674C985.878 270.607 986.955 270.159 987.758 269.322C988.579 268.483 989.017 267.421 989.017 266.153V187.364C992.229 194.891 996.846 200.891 1002.83 205.269C1010.74 211.025 1022.25 213.951 1037.05 213.951C1056.29 213.951 1071.84 206.498 1083.29 191.78C1094.66 177.173 1100.42 157.685 1100.42 133.857C1100.42 110.029 1094.62 91.2114 1083.17 77.4805C1071.66 63.6566 1056.14 56.6514 1037.05 56.6514L1037.04 56.6328ZM1071.42 133.857C1071.42 151.519 1068.03 165.548 1061.35 175.553C1054.76 185.427 1044.63 190.439 1031.23 190.439C1017.84 190.439 1007.83 185.427 1001.24 175.553C994.547 165.548 991.17 151.5 991.17 133.857C991.17 116.214 994.528 103.042 1001.15 93.8384C1007.67 84.7652 1017.8 80.1633 1031.23 80.1633C1058.28 80.1633 1071.44 97.7136 1071.44 133.839" fill="#999999"/>
<path d="M1249.41 60.7708C1248.88 59.9884 1248.02 59.5225 1247.09 59.5225H1223.47C1222.01 59.5225 1220.71 60.4168 1220.17 61.7955L1170.6 188.261C1170.49 186.957 1170.25 185.653 1169.78 184.367L1123.91 61.8328C1123.38 60.4168 1122.09 59.5039 1120.59 59.5039H1096.55C1095.63 59.5039 1094.76 59.9697 1094.23 60.7522C1093.71 61.5347 1093.6 62.5222 1093.93 63.4164L1143.19 194.763C1145.35 200.557 1150.76 204.097 1156.5 204.097C1158.19 204.097 1159.91 203.781 1161.58 203.128C1163.19 202.494 1164.6 201.563 1165.82 200.464L1139.88 266.603C1139.54 267.497 1139.64 268.485 1140.17 269.286C1140.7 270.069 1141.58 270.553 1142.51 270.553H1169.06C1170.55 270.553 1171.86 269.64 1172.39 268.224L1249.72 63.3977C1250.05 62.5221 1249.94 61.5161 1249.41 60.7335" fill="#999999"/>
<path d="M171.854 3.48004L104.214 138.273L36.5756 3.48004C35.4987 1.3375 33.345 -0.00390625 30.9907 -0.00390625H4.32555C3.10272 -0.00390625 2.0624 0.4246 1.25934 1.26299C0.41978 2.10137 0 3.16332 0 4.4302V206.76C0 209.443 1.62436 211.045 4.32555 211.045H24.6757C26.9937 211.045 28.8735 209.126 28.8735 206.76V54.3047L89.9058 175.907C90.6176 177.341 92.0594 178.236 93.629 178.236H114.818C116.388 178.236 117.83 177.341 118.542 175.907L179.574 54.3047V206.76C179.574 209.126 181.454 211.045 183.772 211.045H204.25C206.568 211.045 208.447 209.126 208.447 206.76V4.41157C208.447 1.59834 206.915 -0.00390625 204.25 -0.00390625H177.457C175.103 -0.00390625 172.931 1.3375 171.873 3.48004" fill="#999999"/>
</g>
<defs>
<clipPath id="clip0_793_20501">
<rect width="1290" height="281" fill="white" transform="translate(0 -0.00390625)"/>
</clipPath>
</defs>
</svg>
