<svg width="949" height="172" viewBox="0 0 949 172" fill="none" xmlns="http://www.w3.org/2000/svg">
<g clip-path="url(#clip0_793_20498)">
<path d="M65.5427 169.247H122.977V167.167C117.643 166.473 109.072 163.931 109.072 159.29V91.9003C109.072 71.5234 102.599 56.463 82.2218 56.463C60.2082 56.463 46.7832 73.8349 42.6045 81.4807L42.1422 81.2496L42.8357 1.12891H41.0575L0.23116 19.4254V20.8123C4.16088 23.1239 9.26417 25.2042 11.8069 27.2846C12.6291 27.7789 13.2871 28.5049 13.6983 29.3716C14.1095 30.2383 14.2557 31.2071 14.1185 32.1565V157.601C14.1185 163.468 7.11261 166.242 0 166.936V169.247H55.8162V166.936C49.5571 166.011 42.6757 164.393 42.6757 158.596V89.1265C42.5427 86.9996 42.9207 84.8719 43.7781 82.921C46.552 78.7602 52.0999 75.044 61.8264 75.044C75.7315 75.044 80.3547 87.7929 80.3547 103.991V158.596C80.3547 163.468 73.8822 166.242 65.5427 166.704V169.247ZM212.489 113.148C212.489 134.699 206.23 167.113 187.702 167.113C168.249 167.113 161.314 140.247 161.314 113.611C161.314 86.5305 170.098 60.1259 186.315 60.1259C206.266 60.1792 212.489 90.9757 212.489 113.148ZM243.749 113.38C243.749 74.9373 213.876 56.4808 187.471 56.4808C152.512 56.4808 130.036 83.5789 130.036 113.38C130.036 152.498 162.043 170.812 186.937 170.812C219.14 170.812 243.678 145.581 243.678 113.38M380.827 169.194H436.163V167.167C430.829 166.473 422.507 163.931 422.507 159.29V91.2068C422.507 71.0611 413.243 56.463 395.408 56.463C377.573 56.463 363.401 71.5234 358.067 82.8676H357.373C355.293 66.6692 345.566 56.463 330.968 56.463C313.186 56.463 300.17 70.3677 293.911 81.4807L293.448 81.2496V56.2496H292.062L252 72.0035V73.3904C255.715 74.9842 259.347 76.7645 262.882 78.7247C263.722 79.1957 264.395 79.9154 264.809 80.7847C265.223 81.6539 265.357 82.6301 265.194 83.5788V157.601C265.194 162.473 259.184 166.171 252 166.865V169.176H306.66V166.865C300.401 165.94 294.853 165.086 293.68 158.988V83.7922C295.862 81.1395 298.628 79.0274 301.762 77.6209C304.896 76.2144 308.313 75.5515 311.746 75.6841C324.957 75.6841 329.349 86.3527 329.349 102.551V158.596C329.349 163.468 323.802 166.242 315.462 166.704V169.247H370.816V167.167C365.481 166.473 358.067 163.931 358.067 159.29V84.948C360.198 82.1557 362.926 79.8748 366.051 78.272C369.177 76.6692 372.621 75.7851 376.133 75.6841C388.864 75.6841 393.736 86.5838 393.736 102.782V158.596C393.736 163.468 389.095 166.242 380.774 166.704L380.827 169.194ZM470.979 91.847C471.442 83.2766 478.856 60.357 492.317 60.357C502.986 60.357 508.765 71.0256 508.765 80.9651C508.899 82.4899 508.7 84.0257 508.181 85.4658C507.662 86.9059 506.836 88.2157 505.76 89.3043C503.344 90.3451 500.745 90.8952 498.114 90.9224C486.538 91.3847 481.897 91.847 471.015 91.847M543.741 130.752L541.412 130.289C537.713 141.865 522.901 149.279 508.996 149.279C485.151 149.279 470.552 128.902 470.552 102.035C470.552 99.955 470.553 97.6435 470.784 95.1009H541.181C539.563 68.4295 519.647 56.4097 494.184 56.4097C461.519 56.4097 442.066 84.6635 442.066 110.837C442.066 143.5 462.675 170.35 497.42 170.35C527.524 170.35 540.718 145.118 543.741 130.752ZM584.763 78.1912C584.735 75.7344 585.206 73.2973 586.146 71.0272C587.086 68.7571 588.476 66.7009 590.232 64.9827C591.989 63.2646 594.075 61.92 596.365 61.0303C598.656 60.1405 601.103 59.724 603.558 59.8058C617.446 59.8058 632.009 80.4139 639.904 97.1457L641.771 96.6834L638.979 63.1842C627.537 58.7418 615.37 56.4627 603.096 56.463C582.469 56.463 561.167 69.4431 561.167 90.2467C561.167 105.076 569.276 116.651 581.082 121.043C587.11 123.124 597.299 125.915 603.789 127.764C613.747 130.538 620.682 134.717 620.682 144.212C620.682 160.641 609.568 167.327 598.224 167.327C582.22 167.327 567.657 141.153 561.861 127.035H560.082V162.241C572.86 167.817 586.665 170.652 600.607 170.563C624.469 170.563 648.083 159.45 648.083 134.219C648.083 118.003 637.894 106.427 622.851 101.786C618.441 100.4 608.021 97.8569 601.513 96.0077C591.787 93.2161 584.852 89.2865 584.852 78.2268M699.525 24.8842C699.384 20.5573 697.566 16.455 694.455 13.4442C691.344 10.4335 687.184 8.7502 682.855 8.7502C678.526 8.7502 674.366 10.4335 671.255 13.4442C668.144 16.455 666.326 20.5573 666.185 24.8842C666.296 29.2718 668.079 33.4514 671.169 36.5681C674.259 39.6849 678.424 41.5033 682.811 41.6515C687.216 41.5917 691.423 39.8153 694.538 36.7004C697.653 33.5854 699.43 29.3779 699.49 24.9731M653.844 169.247H712.897V166.936C707.118 166.473 698.085 164.162 698.085 158.365V56.2496H696.698L655.694 71.31V72.697C659.772 73.9668 663.669 75.7599 667.287 78.0312C669.368 79.4181 669.599 81.4985 669.599 83.81V157.601C669.599 163.397 661.028 166.171 653.844 166.865V169.247ZM817.755 131.498L815.976 130.574C808.33 142.629 797.91 149.564 781.925 149.564C761.778 149.564 747.429 131.498 747.429 105.805C747.429 81.7119 756.693 60.1792 771.505 60.1792C781.694 60.1792 786.335 67.2916 786.335 79.8626C786.242 83.6526 785.293 87.3726 783.561 90.7446C784.485 96.5411 790.673 102.089 800.222 102.089C808.793 102.089 815.514 94.443 815.514 85.4103C815.514 66.1892 794.905 56.463 772.661 56.463C739.783 56.463 717.787 83.3299 717.787 112.739C717.787 144.941 738.396 170.865 771.274 170.865C798.604 170.865 812.278 149.795 817.826 131.498M922.861 149.564C914.753 136.37 903.87 116.918 891.832 95.8477C899.247 88.433 904.795 82.8676 913.17 74.9907C923.359 65.4957 945.373 61.335 947.453 61.1038V58.7923H890.641V61.1038C898.287 61.5661 908.423 66.4381 908.423 69.2119C908.423 73.6038 888.97 95.6165 869.517 110.89L866.494 111.353V1.82236H864.716L824.174 20.5812V21.9681C828.103 24.0485 833.9 26.5911 835.981 28.2092C836.77 28.7802 837.383 29.5611 837.751 30.4632C838.119 31.3652 838.226 32.3523 838.061 33.3123V157.601C838.061 163.397 831.357 166.171 824.174 166.865V169.176H879.065V166.865C872.806 165.94 866.618 164.322 866.618 158.525V114.073H867.329C868.485 114.073 869.872 114.535 872.184 118.465C885.147 140.922 895.566 158.756 895.566 161.299C895.566 163.842 890.943 166.633 884.898 166.865V169.176H949V166.865C944.229 166.243 939.56 165 935.113 163.166C930.105 159.558 925.928 154.92 922.861 149.564Z" fill="#999999"/>
</g>
<defs>
<clipPath id="clip0_793_20498">
<rect width="949" height="172" fill="white" transform="translate(0 -0.00390625)"/>
</clipPath>
</defs>
</svg>
