<svg width="573" height="591" viewBox="0 0 573 591" fill="none" xmlns="http://www.w3.org/2000/svg">
<g clip-path="url(#clip0_802_22186)">
<path d="M160.9 295.5C178.5 278.3 189.5 254.3 189.5 227.8C189.5 175.5 147 133 94.7 133C42.5 133 0 175.5 0 227.7C0 254.2 11 278.2 28.6 295.4C11 312.7 0 336.7 0 363.2C0 415.4 42.5 457.9 94.7 457.9C146.9 457.9 189.4 415.4 189.4 363.2C189.5 336.7 178.5 312.7 160.9 295.5ZM94.7 386.9C81.6 386.9 71 376.3 71 363.2C71 350.1 81.6 339.5 94.7 339.5C107.8 339.5 118.4 350.1 118.4 363.2C118.4 376.2 107.8 386.9 94.7 386.9ZM94.7 204.1C107.8 204.1 118.4 214.7 118.4 227.8C118.4 240.9 107.8 251.5 94.7 251.5C81.6 251.5 71 240.9 71 227.8C71.1 214.7 81.7 204.1 94.7 204.1ZM359.9 295.5C377.5 278.3 388.5 254.3 388.5 227.8C388.5 175.6 346 133.1 293.8 133.1C241.5 133 199 175.5 199 227.7C199 254.2 210 278.2 227.6 295.4C210 312.6 199 336.6 199 363.1C199 415.3 241.5 457.8 293.7 457.8C345.9 457.8 388.4 415.3 388.4 363.1C388.4 336.7 377.5 312.7 359.9 295.5ZM293.7 386.9C280.6 386.9 270 376.3 270 363.2C270 350.1 280.6 339.5 293.7 339.5C306.8 339.5 317.4 350.1 317.4 363.2C317.4 376.2 306.8 386.9 293.7 386.9ZM293.7 204.1C306.8 204.1 317.4 214.7 317.4 227.8C317.4 240.9 306.8 251.5 293.7 251.5C280.6 251.5 270 240.9 270 227.8C270 214.7 280.6 204.1 293.7 204.1ZM570.8 280.7L489.3 173.6C485.8 168.8 478.7 168.8 475.2 173.6L393.7 280.7C389.5 286.5 393.6 294.6 400.8 294.6H446C448.1 294.6 449.8 296.3 449.8 298.4V421.5C449.8 427.3 454.5 431.9 460.2 431.9H503.7C509.5 431.9 514.1 427.2 514.1 421.5V298.3C514.1 296.2 515.8 294.5 517.9 294.5H563.7C570.8 294.6 575 286.5 570.8 280.7Z" fill="#999999"/>
</g>
<defs>
<clipPath id="clip0_802_22186">
<rect width="572.4" height="324.9" fill="#999999" transform="translate(0 133)"/>
</clipPath>
</defs>
</svg>
