<svg width="1437" height="439" viewBox="0 0 1437 439" fill="none" xmlns="http://www.w3.org/2000/svg">
<path d="M1436.41 0.285156H585.523V438.963H1436.41V0.285156Z" fill="white"/>
<path d="M888.963 237.902H836.258V384.128H858.188V321.982H888.927L909.322 300.743V258.776L888.963 237.902ZM858.188 259.836H879.862L887.428 267.842V291.64L879.862 300.012H858.188V259.836Z" fill="#999999"/>
<path d="M751.094 362.012V384.128H773.755H816.884V362.194H773.024V321.982H809.574V300.048H773.024V259.836H816.884V237.902H773.755H751.094V259.653V299.866V321.799V362.012Z" fill="#999999"/>
<path d="M1171.42 259.836V237.902H1109.29V259.836H1129.03V384.128H1150.96V259.836H1171.42Z" fill="#999999"/>
<path d="M979.502 237.902H948.508L926.906 258.776V362.889L948.508 384.128H979.502L1000.01 362.889V258.776L979.502 237.902ZM978.077 353.859L970.474 362.194H957.572L948.836 353.823V267.842L957.572 259.836H970.474L978.077 267.806V336.422V353.859Z" fill="#999999"/>
<path d="M699.013 321.982L710.161 384.128H732.091L719.445 313.391L731.726 300.926V258.922L711.038 237.902H658.625V384.128H680.555V321.982M680.555 259.836H701.974L709.795 268.025V291.823L701.974 300.048H680.555V259.836Z" fill="#999999"/>
<path d="M1059.76 321.982L1070.91 384.128H1092.84L1080.19 313.391L1092.48 300.926V258.922L1071.79 237.902H1019.38V384.128H1041.31V321.982M1041.31 259.836H1062.72L1070.55 268.025V291.823L1062.72 300.048H1041.31V259.836Z" fill="#999999"/>
<path d="M711.038 55.1211H658.625V201.347H711.038L731.726 180.108V138.141L721.638 128.051L731.726 117.962V75.9948L711.038 55.1211ZM680.555 77.055H701.974L709.795 85.0608V108.859L701.974 117.231H680.555V77.055ZM680.555 139.201H701.974L709.795 147.207V171.005L701.974 179.376H680.555V139.201Z" fill="#999999"/>
<path d="M1112.58 201.347H1134.51V139.201H1163.75V201.347H1185.68V139.018V117.084V55.1211H1163.75V117.267H1134.51V55.1211H1112.58V117.084V139.018V201.347Z" fill="#999999"/>
<path d="M831.141 179.23V201.347H853.619H896.931V179.413H853.071V139.201H889.621V117.267H853.071V77.055H896.931V55.1211H853.619H831.141V76.8722V117.084V139.018V179.23Z" fill="#999999"/>
<path d="M1205.41 179.23V201.347H1228H1271.2V179.413H1227.34V139.201H1263.89V117.267H1227.34V77.055H1271.2V55.1211H1228H1205.41V76.8722V117.084V139.018V179.23Z" fill="#999999"/>
<path d="M813.229 179.413H773.024V55.1211H751.094V179.23V201.347H773.389H813.229V179.413Z" fill="#999999"/>
<path d="M1020.11 78.9193V87.6563V168.446V177.183V180.108L1041.71 201.347H1044.42H1056.7H1057.76H1068.17H1072.71L1093.21 180.108V179.23V168.446V153.824H1071.28V171.078L1063.68 179.413H1050.78L1042.04 171.042V85.0608L1050.78 77.055H1063.68L1071.28 85.0243V102.644H1093.21V87.6563V76.8722V75.9948L1072.71 55.1211H1068.17H1057.76H1056.7H1046.24H1041.71L1020.11 75.9948V78.9193Z" fill="#999999"/>
<path d="M981.727 201.347H1003.66L977.889 55.1211H938.049L912.281 201.347H934.211L941.302 161.135H974.636L981.727 201.347ZM945.177 139.201L956.142 77.055H959.833L970.798 139.201H945.177Z" fill="#999999"/>
<path d="M1330.6 139.201L1341.75 201.347H1363.68L1351.03 130.61L1363.31 118.144V76.1411L1342.62 55.1211H1290.21V201.347H1312.14V139.201M1312.14 77.055H1333.56L1341.38 85.2436V109.042L1333.56 117.267H1312.14V77.055Z" fill="#999999"/>
<path d="M585.523 0.285156H0.71875V438.963H585.523V0.285156Z" fill="#999999"/>
<path d="M177.952 73.3984H73.8203V365.85H177.952L220.021 323.774V239.803L199.882 219.661L220.021 199.518V115.475L177.952 73.3984ZM117.681 197.69V117.266H159.75L176.161 133.68V181.313L159.75 197.69M159.75 241.558L176.161 257.972V305.605L159.75 322.019H117.681V241.595" fill="white"/>
<path d="M517.902 365.85L481.571 230.299L512.42 199.445V115.475L470.351 73.3984H366.219V365.85H410.079V241.558H440.745L474.042 365.85H517.902ZM410.079 117.266H452.148L468.56 133.68V181.313L452.148 197.727H410.079V117.266Z" fill="white"/>
<path d="M256.57 230.336V282.026L329.671 208.913V157.223L256.57 230.336Z" fill="white"/>
</svg>
