<svg width="1313" height="700" viewBox="0 0 1313 700" fill="none" xmlns="http://www.w3.org/2000/svg">
<path d="M135.723 441.593C110.808 441.593 98.8321 422.444 105.086 400.293C117.998 354.382 200.965 286.348 257.504 286.348C298.732 286.348 295.594 323.228 271.424 354.685L258.064 369.469C210.144 416.478 165.721 441.593 135.723 441.593ZM337.804 132C265.646 132.028 186.187 176.157 136.284 217.95L140.223 223.659C217.682 169.378 325.161 134.084 354.789 187.026C370.436 214.953 343.878 271.357 306.477 315.934C315.421 296.247 309.515 258.449 257.364 258.449C170.67 258.449 0 373.256 0 490.753C0 537.817 32.6601 568.523 86.4585 568.523C230.459 568.523 425.747 332.556 425.747 214.04C425.747 172.174 401.655 132 337.804 132Z" fill="#999999"/>
<path d="M523.198 441.593C514.815 441.593 507.838 438.669 503.472 433.33C498.922 427.733 497.566 419.8 499.723 411.61C504.515 393.84 523.675 379.879 543.378 379.879H589.723L573.164 441.593H523.198ZM656.394 256.584C643.141 240.292 621.683 233.004 606.328 233.004H522.111L507.815 286.304H587.241L594.851 287.105C594.93 287.105 602.142 287.945 606.166 293.357C609.416 297.884 609.892 304.607 607.555 313.425L603.801 327.453H553.757C510.685 327.453 450.638 358.344 437.25 408.237C430.592 433.117 436.426 454.669 449.36 470.507C462.193 486.227 486.414 494.905 512.579 494.905H558.924H558.896H617.799L645.427 391.761L665.764 315.946C673.75 286.136 665.097 267.2 656.394 256.584Z" fill="#999999"/>
<path d="M1234.9 233.004C1212.12 233.004 1190.94 239.743 1173.73 252.5C1156.35 265.368 1146.76 280.831 1141.04 302.158C1128.64 348.383 1164.98 370.691 1194.17 386.506C1215.11 397.845 1233.23 407.627 1229.3 422.114C1226.54 432.512 1221.99 441.61 1196.23 441.61H1117.59L1103.32 494.905H1190.37C1213.71 494.905 1235.25 490.047 1252.61 476.725C1269.98 463.358 1279.8 444.736 1285.87 422.008C1291.69 400.377 1287.76 379.716 1273.84 364.299C1262.23 351.352 1245.54 342.36 1230.83 334.416C1211.98 324.276 1194.2 314.707 1197.3 303.111C1199.2 296.091 1206.17 286.304 1221.4 286.304H1297.9L1312.2 233.004H1234.9Z" fill="#999999"/>
<path d="M778.513 233.004C755.733 233.004 734.566 239.743 717.345 252.5C699.961 265.368 690.373 280.831 684.601 302.158C672.227 348.383 708.592 370.691 737.783 386.506C758.736 397.845 776.804 407.627 772.92 422.114C770.124 432.512 765.601 441.61 739.84 441.61H661.21L646.914 494.905H733.955C757.324 494.905 778.86 490.047 796.216 476.725C813.616 463.358 823.412 444.736 829.481 422.008C835.287 400.377 831.353 379.716 817.483 364.299C805.877 351.352 789.155 342.36 774.416 334.416C755.592 324.276 737.839 314.707 740.949 303.111C742.815 296.091 749.809 286.304 765.007 286.304H841.463L855.786 233.004H778.513Z" fill="#999999"/>
<path d="M897.281 233.004L829.008 494.905H886.69L954.907 233.004H897.281Z" fill="#999999"/>
<path d="M1108.36 233.004C1006.81 233.368 953.67 300.976 936.802 363.957C916.818 438.635 956.584 494.91 1029.31 494.91H1078.04L1092.31 441.616H1043.59C1016.37 441.616 978.944 420.204 994.03 363.957C1006.01 319.251 1049.62 286.31 1097.45 286.31H1128.39L1142.69 233.01L1108.36 233.004Z" fill="#999999"/>
</svg>
