<svg width="870" height="516" viewBox="0 0 870 516" fill="none" xmlns="http://www.w3.org/2000/svg">
<g clip-path="url(#clip0_803_22209)">
<path d="M156.447 353.058C150.52 355.641 145.862 357.415 142.472 358.379C117.057 365.626 92.3638 364.361 68.3917 354.585C40.0569 343.029 16.9421 318.777 6.71958 289.954C-7.15148 250.858 1.58115 207.5 30.0465 177.15C55.5864 149.913 92.5886 137.515 129.373 143.69C177.887 151.837 215.737 192.358 220.598 241.286C222.617 261.639 219.266 281.136 210.544 299.775C210.457 299.96 210.347 299.978 210.213 299.83L183.884 271.55C183.765 271.419 183.73 271.271 183.781 271.104C184.234 269.626 184.595 268.127 184.863 266.609C187.277 253.072 186.25 239.965 181.78 227.29C174.885 207.729 159.671 191.548 140.64 183.335C95.6173 163.915 43.9338 192.113 36.2071 240.558C28.7795 287.117 65.5642 329.398 112.979 327.952C132.021 327.37 149.623 319.723 163.358 306.521C163.514 306.368 163.666 306.372 163.814 306.531L201.855 347.725C202.011 347.896 202.006 348.059 201.839 348.215L175.402 372.63C175.371 372.658 175.335 372.68 175.296 372.695C175.257 372.709 175.215 372.715 175.173 372.713C175.131 372.711 175.09 372.701 175.052 372.683C175.013 372.665 174.979 372.639 174.95 372.608L156.985 353.172C156.833 353.005 156.653 352.967 156.447 353.058Z" fill="#999999"/>
<path d="M869.788 252.56C869.788 281.846 858.149 309.933 837.433 330.641C816.716 351.35 788.618 362.984 759.32 362.984C730.022 362.984 701.924 351.35 681.207 330.641C660.49 309.933 648.852 281.846 648.852 252.56C648.852 223.274 660.49 195.187 681.207 174.479C701.924 153.771 730.022 142.137 759.32 142.137C788.618 142.137 816.716 153.771 837.433 174.479C858.149 195.187 869.788 223.274 869.788 252.56ZM834.754 252.56C834.754 232.562 826.807 213.383 812.66 199.242C798.513 185.101 779.326 177.156 759.32 177.156C739.313 177.156 720.126 185.101 705.98 199.242C691.833 213.383 683.885 232.562 683.885 252.56C683.885 272.558 691.833 291.738 705.98 305.879C720.126 320.02 739.313 327.964 759.32 327.964C779.326 327.964 798.513 320.02 812.66 305.879C826.807 291.738 834.754 272.558 834.754 252.56Z" fill="#999999"/>
<path d="M628.191 323.767L628.208 359.156C628.208 359.204 628.189 359.249 628.155 359.283C628.122 359.317 628.076 359.336 628.028 359.336H503.586C503.538 359.336 503.492 359.317 503.459 359.283C503.425 359.249 503.406 359.204 503.406 359.156V145.984C503.406 145.936 503.425 145.891 503.459 145.857C503.492 145.824 503.538 145.805 503.586 145.805H538.842C538.89 145.805 538.936 145.824 538.969 145.857C539.003 145.891 539.022 145.936 539.022 145.984L539.016 323.397C539.016 323.445 539.035 323.491 539.069 323.524C539.103 323.558 539.148 323.577 539.196 323.577L628.012 323.588C628.036 323.588 628.059 323.592 628.081 323.601C628.102 323.61 628.122 323.624 628.139 323.64C628.156 323.657 628.169 323.677 628.178 323.698C628.187 323.72 628.191 323.744 628.191 323.767Z" fill="#999999"/>
<path d="M285.115 359.84L246.949 359.845C246.921 359.845 246.892 359.839 246.867 359.825C246.842 359.812 246.82 359.793 246.804 359.769C246.788 359.746 246.777 359.718 246.774 359.69C246.771 359.661 246.775 359.633 246.786 359.606L333.357 146.32C333.37 146.287 333.392 146.26 333.421 146.24C333.45 146.221 333.485 146.211 333.52 146.211H371.805C371.839 146.212 371.872 146.222 371.9 146.242C371.928 146.261 371.95 146.288 371.963 146.32L459.507 359.606C459.517 359.633 459.521 359.661 459.518 359.69C459.515 359.718 459.505 359.746 459.489 359.769C459.473 359.793 459.451 359.812 459.426 359.825C459.4 359.839 459.372 359.845 459.343 359.845H421.161C421.126 359.846 421.092 359.835 421.063 359.816C421.034 359.797 421.011 359.769 420.998 359.736L407.655 326.771C407.641 326.739 407.619 326.711 407.59 326.692C407.561 326.673 407.526 326.662 407.491 326.663H340.453C340.424 326.663 340.396 326.656 340.37 326.643C340.345 326.63 340.323 326.61 340.307 326.587C340.291 326.563 340.281 326.536 340.278 326.507C340.275 326.479 340.279 326.45 340.289 326.424L354.688 291.138C354.701 291.105 354.724 291.078 354.753 291.058C354.782 291.039 354.816 291.029 354.851 291.029H392.919C392.947 291.028 392.975 291.021 392.999 291.007C393.024 290.994 393.045 290.974 393.061 290.951C393.076 290.927 393.086 290.9 393.088 290.872C393.091 290.844 393.087 290.816 393.077 290.79L353.372 192.764C353.36 192.731 353.337 192.702 353.308 192.682C353.279 192.662 353.244 192.651 353.209 192.651C353.173 192.651 353.139 192.662 353.11 192.682C353.08 192.702 353.058 192.731 353.046 192.764L285.278 359.731C285.265 359.763 285.242 359.791 285.213 359.811C285.184 359.83 285.15 359.84 285.115 359.84Z" fill="#999999"/>
</g>
<defs>
<clipPath id="clip0_803_22209">
<rect width="870" height="231" fill="white" transform="translate(0 142)"/>
</clipPath>
</defs>
</svg>
