<svg width="1000" height="182" viewBox="0 0 1000 182" fill="none" xmlns="http://www.w3.org/2000/svg">
<path fill-rule="evenodd" clip-rule="evenodd" d="M90.5223 25.5938C54.469 25.5938 25 55.0629 25 91.1161C25 127.169 54.469 156.638 90.5223 156.638C113.286 156.638 133.422 144.887 145.175 127.15L127.37 113.304C119.885 125.78 106.238 134.067 90.5223 134.067C66.6661 134.067 47.5716 114.972 47.5716 91.1161C47.5716 67.2599 66.6661 48.154 90.5223 48.154C106.238 48.154 119.885 56.4464 127.37 68.9256L145.175 55.0787C133.422 37.3434 113.286 25.5938 90.5223 25.5938ZM166.729 29.6774V154.477H188.57V29.6774H166.729ZM216.966 29.6774V154.477H238.806V69.3549C257.824 97.4702 296.389 154.477 296.389 154.477H317.755V29.6774H295.914V114.8C276.892 86.6844 238.334 29.6774 238.334 29.6774H216.966ZM346.281 29.6774V154.477H426.034V132.636H368.122V93.4281H419.801V71.5873H368.122V51.5183H427.496V29.6774H346.281ZM452.016 29.6774V154.477H473.856V68.3681L507.542 114.658L541.224 68.3681V154.477H563.065V29.6774H542.376C542.376 29.6774 522.74 56.6581 507.542 77.5395C492.343 56.6573 472.705 29.6774 472.705 29.6774H452.016ZM625.786 29.6774L577.987 154.477H601.378L614.405 120.459H657.367L670.395 154.477H693.786L645.986 29.6774H625.786ZM707.922 29.6774V154.477H729.763V92.8365H740.809L785.062 154.474H811.956L767.675 92.8138C771.344 92.6989 777.257 91.9835 783.836 88.1926C791.267 83.9109 798.499 74.1098 798.499 61.2555C798.499 48.4012 791.267 38.6146 783.836 34.3329C776.405 30.0511 769.816 29.6774 766.361 29.6774H707.922ZM827.37 29.6774V154.477H849.211V108.151L870.693 87.9736L917.952 154.477H944.75L886.761 72.8841L932.766 29.6774H900.866L849.211 78.1851V29.6774H827.37ZM939.329 29.6774V33.6333H944.377V45.6997H949.328V33.6333H954.376V29.6774H939.329ZM956.978 29.6774V45.6997H961.034V33.4797L964.159 45.6997H967.822L970.959 33.4797V45.6997H975V29.6774H968.51L966.008 39.4261L963.494 29.6774H956.978ZM729.763 51.5183H766.361C773.43 51.5183 776.63 55.3088 776.658 61.2555C776.685 67.2023 773.43 70.9958 766.361 70.9958H729.763V51.5183ZM635.885 64.3668L649.004 98.6182H622.769L635.885 64.3668Z" fill="#999999"/>
</svg>
