<svg width="736" height="477" viewBox="0 0 736 477" fill="none" xmlns="http://www.w3.org/2000/svg">
<path d="M433.995 50.5263C448.635 85.4399 445.325 132.87 412.685 158.907C400.358 168.744 386.078 174.089 369.845 174.943C333.215 176.884 305.795 155.769 294.375 124.69C283.305 94.5676 285.555 56.5155 306.115 29.6988C318.815 13.1334 336.805 2.67793 358.915 1.05296C394.425 -1.55627 421.825 21.5276 433.995 50.5263ZM435.075 112.099C442.155 78.4108 431.095 35.5673 398.725 15.3991C381.075 4.40504 358.175 2.51079 338.785 10.3385C298.965 26.4303 287.585 74.1859 295.165 109.796C302.825 145.749 331.765 174.934 373.925 169.78C406.955 165.732 428.875 141.59 435.075 112.099Z" fill="#999999"/>
<path d="M321.843 71.1048C314.023 69.0991 307.963 63.0913 309.573 55.3379C312.373 41.9296 333.383 41.1218 344.143 44.5853C353.553 47.6216 358.223 57.8079 351.513 65.5056C345.073 72.9062 331.093 73.4726 321.843 71.1048ZM340.963 50.7509C334.593 48.1788 326.363 47.1109 320.583 50.9923C316.243 53.908 314.883 59.0243 319.543 62.5528C323.937 65.8894 328.967 67.1646 334.633 66.3784C343.273 65.1899 357.133 57.2879 340.963 50.7509Z" fill="#999999"/>
<path d="M399.464 119.081C402.004 110.984 404.544 102.887 407.084 94.7897C407.544 93.3319 407.294 92.069 406.894 90.704C406.798 90.3754 406.843 90.0247 407.02 89.7265C407.198 89.4283 407.493 89.2061 407.844 89.1069C410.604 88.3455 412.608 89.0605 413.854 91.2519C413.981 91.468 414.043 91.7125 414.032 91.9593C414.022 92.2061 413.94 92.4462 413.794 92.654C412.528 94.443 411.824 95.7461 411.684 96.5632C409.971 106.294 408.271 116.026 406.584 125.757C405.924 129.508 403.194 131.765 399.314 129.378C392.934 125.454 386.554 121.588 380.174 117.781C379.87 117.6 379.521 117.496 379.16 117.48C378.799 117.464 378.441 117.536 378.12 117.689C377.799 117.843 377.527 118.072 377.331 118.353C377.135 118.635 377.022 118.959 377.004 119.294C376.664 126.302 376.308 133.331 375.934 140.382C375.824 142.452 376.334 144.059 377.074 145.907C377.188 146.194 377.232 146.5 377.203 146.805C377.175 147.109 377.074 147.404 376.909 147.668C376.743 147.931 376.517 148.158 376.247 148.33C375.976 148.502 375.668 148.616 375.344 148.664C373.364 148.962 371.468 148.77 369.654 148.089C369.238 147.933 368.902 147.635 368.714 147.256C368.526 146.876 368.501 146.443 368.644 146.046C369.304 144.198 369.654 142.434 369.674 140.372C369.728 133.278 369.821 126.367 369.954 119.638C369.966 119.075 369.812 118.52 369.507 118.033C369.203 117.547 368.76 117.147 368.228 116.878C367.696 116.608 367.094 116.48 366.488 116.507C365.883 116.533 365.297 116.714 364.794 117.029C358.301 121.071 351.791 125.067 345.264 129.016C341.384 131.365 338.044 130.242 337.594 125.906C336.621 116.348 335.594 106.799 334.514 97.2596C334.234 94.734 331.214 90.4441 333.244 87.4634C333.405 87.2302 333.651 87.0615 333.934 86.9898L339.604 85.5784C340.064 85.4608 340.274 85.6249 340.234 86.0706C339.954 88.8934 339.774 91.2797 340.314 94.1118C341.908 102.5 343.468 110.872 344.994 119.229C345.004 119.284 345.028 119.336 345.064 119.38C345.1 119.424 345.147 119.46 345.201 119.484C345.255 119.507 345.315 119.519 345.374 119.516C345.434 119.514 345.492 119.498 345.544 119.471C352.611 115.732 359.641 111.962 366.634 108.161C368.174 107.325 369.104 104.567 369.054 102.701C368.581 86.5689 368.478 70.4368 368.744 54.3047C368.758 53.1224 368.361 51.9338 367.554 50.7391C367.381 50.4729 367.311 50.1881 367.344 49.8848C367.654 47.062 369.694 46.0499 372.634 46.282C404.414 48.8077 407.444 83.5542 378.754 93.174C378.321 93.3213 377.941 93.5792 377.66 93.9178C377.379 94.2564 377.207 94.6617 377.164 95.0868C376.924 97.5258 376.754 100.104 376.654 102.822C376.561 105.484 377.704 107.517 380.084 108.922C386.224 112.55 392.468 116.016 398.814 119.322C399.141 119.495 399.358 119.415 399.464 119.081ZM379.694 83.7492C392.544 77.7322 394.004 61.4732 379.924 55.9669C378.878 55.5583 378.048 55.8461 377.434 56.8304C377.245 57.1222 377.144 57.4593 377.144 57.8054L377.164 82.3006C377.165 82.5781 377.242 82.8508 377.388 83.0929C377.534 83.335 377.744 83.5384 377.997 83.6836C378.251 83.8289 378.54 83.9111 378.837 83.9226C379.134 83.9341 379.429 83.8744 379.694 83.7492Z" fill="#999999"/>
<path d="M343.739 252.804C341.509 255.116 342.38 266.305 342.39 269.703C342.4 272.313 342.999 274.606 343.489 277.16C344.159 280.753 336.299 280.549 334.369 280.085C329.199 278.859 332.399 273.836 332.409 270.697C332.423 259.523 332.419 248.35 332.399 237.176C332.389 234.669 332.009 232.441 331.369 230.119C331.238 229.656 331.268 229.166 331.455 228.718C331.641 228.27 331.975 227.886 332.409 227.621C334.999 226.034 341.269 225.402 343.199 228.624C344.619 230.983 342.189 233.908 344.729 236.693C349.149 241.571 353.546 246.462 357.919 251.365C360.649 254.419 363.159 253.231 365.519 250.612C368.066 247.802 370.556 244.961 372.989 242.088C377.209 237.111 379.7 234.92 378.83 229.163C378.805 229 378.819 228.835 378.87 228.679C378.922 228.523 379.011 228.381 379.129 228.262C381.319 226.024 385.3 226.275 388.08 226.804C391.93 227.529 390.04 231.856 389.55 234.066C389.29 235.223 389.159 236.421 389.159 237.659C389.153 247.966 389.156 258.27 389.169 268.571C389.179 271.533 392.909 278.32 388.179 279.723C384.889 280.698 377.799 280.883 378.819 275.804C379.719 271.366 381.48 257.066 378.36 253.268C378.26 253.144 378.126 253.046 377.971 252.986C377.816 252.926 377.647 252.904 377.479 252.924C370.689 253.677 365.489 272.703 357.099 264.225C353.489 260.576 349.419 254.967 344.779 252.637C344.609 252.554 344.415 252.526 344.227 252.556C344.039 252.586 343.867 252.673 343.739 252.804Z" fill="#999999"/>
<path d="M451.009 230.198C453.689 231.424 455.849 231.591 455.679 235.11C455.632 236.001 454.809 237.261 453.209 238.889C451.499 240.626 449.729 240.7 447.689 239.168C441.729 234.674 433.509 233.531 425.729 235.992C421.329 237.394 419.389 240.932 422.159 244.869C423.039 246.113 425.046 247.113 428.179 247.868C440.009 250.719 458.019 251.471 456.679 267.526C456.106 274.304 452.096 278.656 444.649 280.581C433.802 283.385 423.399 282.067 413.439 276.626C409.159 274.286 408.659 271.509 412.299 268.222C414.339 266.384 416.119 266.421 418.179 268.343C423.739 273.524 431.809 274.286 439.409 273.032C442.369 272.54 444.689 271.398 446.059 268.854C448.979 263.449 442.249 260.181 437.379 259.178C426.929 257.015 410.609 255.371 410.869 241.684C411.009 234.683 416.249 229.418 423.389 227.644C432.922 225.273 442.129 226.125 451.009 230.198Z" fill="#999999"/>
<path d="M294.559 236.561C300.689 250.136 306.689 263.879 313.629 277.111C313.838 277.51 313.884 277.966 313.759 278.394C313.634 278.822 313.347 279.194 312.949 279.441C310.343 281.063 307.283 281.416 303.769 280.5C298.489 279.116 303.729 271.056 295.389 271.168C288.269 271.261 283.356 271.388 280.649 271.548C276.389 271.79 275.409 275.17 275.729 279.088C275.756 279.423 275.659 279.72 275.439 279.98C273.909 281.874 272.019 281.92 269.299 282.088C259.379 282.7 265.479 275.356 266.789 271.391C270.603 259.883 274.416 248.378 278.229 236.876C279.239 233.84 277.919 228.854 282.529 228.194C285.199 227.814 292.479 226.801 293.029 230.581C293.329 232.651 293.659 234.583 294.559 236.561ZM294.649 259.282C293.789 256.079 290.549 248.446 287.869 244.788C287.716 244.577 287.504 244.408 287.257 244.298C287.01 244.188 286.735 244.142 286.462 244.164C286.189 244.185 285.927 244.274 285.703 244.422C285.479 244.569 285.302 244.769 285.189 245.001C283.729 247.963 279.239 258.27 279.999 261.362C280.759 264.399 289.219 263.526 291.959 262.941C293.929 262.514 295.149 261.121 294.649 259.282Z" fill="#999999"/>
<path d="M517.26 255.321C518.71 257.949 521.01 260.345 521.84 262.926C524.58 271.469 520.65 281.404 510.65 283.846C508.677 284.329 504.873 284.394 499.24 284.041C493.213 283.664 487.19 283.258 481.17 282.825C479.797 282.726 478.453 282.494 477.14 282.128C476.826 282.04 476.534 281.894 476.282 281.698C476.03 281.503 475.823 281.262 475.673 280.989C475.524 280.717 475.435 280.419 475.412 280.114C475.389 279.809 475.433 279.502 475.54 279.213C476.347 277.046 476.843 274.657 477.03 272.044C477.817 261.255 478.583 250.465 479.33 239.675C479.52 236.88 478.97 234.28 478.56 231.541C478.538 231.382 478.556 231.222 478.611 231.072C478.667 230.922 478.759 230.787 478.88 230.677C479.853 229.78 481.193 229.365 482.9 229.433C490.547 229.755 497.203 230.111 502.87 230.501C514.11 231.29 522.44 236.146 519.92 248.301C519.51 250.279 517.95 252.275 517.18 254.374C517.06 254.702 517.087 255.018 517.26 255.321ZM489.18 241.263L488.73 248.515C488.703 248.953 488.769 249.392 488.925 249.807C489.081 250.221 489.323 250.603 489.638 250.931C489.953 251.259 490.334 251.526 490.76 251.717C491.186 251.907 491.648 252.018 492.12 252.043L502.37 252.591C504.459 252.703 506.506 252.093 508.063 250.895C509.619 249.697 510.557 248.009 510.67 246.203L510.69 245.906C510.747 245.01 510.599 244.113 510.255 243.264C509.912 242.416 509.379 241.633 508.687 240.96C507.995 240.288 507.158 239.739 506.223 239.344C505.289 238.95 504.275 238.719 503.24 238.663L492.98 238.115C492.508 238.09 492.035 238.151 491.589 238.296C491.142 238.441 490.731 238.666 490.378 238.958C490.025 239.25 489.737 239.604 489.532 240C489.326 240.395 489.207 240.824 489.18 241.263ZM487.31 263.446L486.8 271.664C486.737 272.668 487.106 273.655 487.826 274.407C488.546 275.159 489.558 275.615 490.64 275.675L501.96 276.279C503.329 276.352 504.697 276.229 505.985 275.918C507.274 275.607 508.457 275.113 509.469 274.464C510.48 273.816 511.299 273.025 511.879 272.139C512.459 271.252 512.789 270.286 512.85 269.296L512.89 268.572C513.012 266.574 512.032 264.601 510.167 263.084C508.301 261.568 505.702 260.633 502.94 260.484L491.63 259.88C490.548 259.822 489.486 260.165 488.676 260.833C487.866 261.502 487.375 262.441 487.31 263.446Z" fill="#999999"/>
<path d="M234.646 256.35C234.28 249.664 233.566 242.013 232.506 233.396C232.046 229.682 243.056 227.973 242.916 233.053C242.83 236.296 242.87 239.546 243.036 242.802C243.456 251.196 244.096 259.563 244.346 267.966C244.466 271.699 245.07 275.534 246.156 279.471C247.516 284.374 237.276 284.699 235.156 282.154C234.944 281.897 234.841 281.574 234.866 281.244C235.22 277.072 235.34 272.897 235.226 268.718C235.16 266.36 234.966 262.237 234.646 256.35Z" fill="#999999"/>
<path d="M190.427 273.191C190.727 276.515 192.567 278.586 196.417 278.289C202.244 277.831 208.07 277.27 213.897 276.608C215.383 276.441 216.737 276.682 217.957 277.332C218.093 277.406 218.211 277.505 218.304 277.623C218.396 277.741 218.462 277.876 218.497 278.019C219.997 284.231 212.387 284.928 208.037 285.336C196.277 286.445 188.067 286.999 183.407 286.999C181.634 287.005 180.63 285.974 180.397 283.906C180.207 282.235 181.207 279.552 181.057 277.369C180.264 265.868 179.297 254.378 178.157 242.902C177.957 240.896 176.587 238.092 176.987 236.002C177.567 232.92 188.167 231.564 187.957 236.996C187.857 239.627 187.907 242.255 188.107 244.879C188.814 254.32 189.587 263.757 190.427 273.191Z" fill="#999999"/>
<path d="M562.234 280.789C568.294 283.278 576.474 280.176 579.424 274.438C580.171 272.977 580.834 270.535 581.414 267.112C583.014 257.715 583.891 248.253 584.044 238.726C584.048 238.564 584.091 238.406 584.17 238.263C584.25 238.119 584.364 237.995 584.504 237.899C587.804 235.689 595.294 236.042 594.394 241.762C593.128 249.766 592.151 257.811 591.464 265.895C590.234 280.409 582.264 291.05 564.934 289.546C544.454 287.772 540.994 272.739 543.314 256.582C544.274 249.872 544.774 243.133 544.814 236.367C544.844 231.873 557.034 232.365 555.704 237.417C554.831 240.735 554.268 244.099 554.014 247.51C553.628 252.722 553.078 257.916 552.364 263.091C551.171 271.689 554.461 277.589 562.234 280.789Z" fill="#999999"/>
<path d="M135.809 277.332C136.099 280.007 137.369 282.931 140.929 282.755C148.249 282.411 155.329 280.972 162.619 280.87C162.776 280.87 162.932 280.901 163.077 280.96C163.221 281.019 163.351 281.105 163.459 281.214C166.689 284.529 161.989 288.466 158.399 288.958C149.052 290.239 139.669 291.189 130.249 291.808C124.289 292.198 127.079 284.946 126.759 281.873C125.652 271.071 124.439 260.281 123.119 249.504C122.819 247.043 122.119 244.721 121.469 242.344C120.379 238.37 127.729 238.027 130.109 238.5C133.909 239.252 132.559 248.241 132.919 251.351C133.906 260.012 134.869 268.672 135.809 277.332Z" fill="#999999"/>
<path d="M644.64 280.889C642.86 274.538 634.45 275.114 628.31 274.714C620.93 274.241 621.45 285.606 621.96 289.924C622.65 295.783 608.73 294.567 610.68 289.144C611.693 286.334 612.266 284.427 612.4 283.424C613.946 272.201 615.52 260.978 617.12 249.755C617.52 246.895 614.75 239.29 621.67 240.182C629.163 241.147 636.66 242.091 644.16 243.014C655.03 244.36 663.67 250.544 662.72 261.603C662.353 265.831 660.493 269.471 657.14 272.523C653.36 275.959 652.7 277.268 653.86 282.022C654.826 285.978 656.076 289.853 657.61 293.648C658.11 294.898 658.063 296.068 657.47 297.158C657.296 297.467 657.002 297.701 656.65 297.808C654.976 298.303 652.91 298.281 650.45 297.743C647.53 297.102 646.15 296.638 646.27 293.443C646.416 289.463 645.873 285.278 644.64 280.889ZM626.33 253.339L625.03 261.947C624.864 263.044 625.175 264.157 625.893 265.042C626.611 265.926 627.678 266.51 628.86 266.664L640.07 268.131C641.555 268.325 643.057 268.315 644.49 268.1C645.922 267.886 647.257 267.472 648.418 266.881C649.579 266.29 650.543 265.535 651.255 264.658C651.968 263.781 652.414 262.8 652.57 261.77L652.75 260.554C653.062 258.477 652.171 256.331 650.274 254.586C648.376 252.842 645.627 251.642 642.63 251.25L631.42 249.783C630.834 249.705 630.237 249.736 629.664 249.873C629.091 250.01 628.553 250.25 628.08 250.581C627.608 250.911 627.21 251.325 626.909 251.798C626.609 252.271 626.412 252.795 626.33 253.339Z" fill="#999999"/>
<path d="M103.638 284.355C103.948 286.843 106.718 291.486 105.168 293.566C103.638 295.628 99.1578 295.637 96.7178 295.46C96.0934 295.414 95.5106 295.151 95.0847 294.725C94.6588 294.299 94.4208 293.739 94.4178 293.158C94.4078 289.676 94.4978 286.184 94.0378 282.674C92.4778 270.687 91.4978 258.829 88.6578 246.99C87.3178 241.437 98.5578 240.109 98.8778 244.78C99.0978 247.912 99.4078 251.038 99.8078 254.158C101.114 264.224 102.391 274.289 103.638 284.355Z" fill="#999999"/>
<path d="M27.6956 281.196C30.7756 280.221 31.5656 272.709 31.7656 270.127C32.1156 265.8 28.2756 261.278 25.5256 257.796C20.7156 251.686 30.2156 249.421 34.7656 252.049C35.019 252.197 35.209 252.401 35.3356 252.661C36.7256 255.456 37.5556 258.344 39.2556 260.87C42.4623 265.618 45.6623 270.36 48.8556 275.095C49.649 276.265 50.5923 277.089 51.6856 277.565C51.8459 277.635 52.023 277.663 52.1975 277.647C52.372 277.631 52.5374 277.57 52.6756 277.472C53.6756 276.748 54.3223 275.714 54.6157 274.371C55.8557 268.626 57.069 262.879 58.2556 257.128C58.8256 254.342 58.2356 251.556 58.5056 248.585C58.515 248.45 58.5535 248.319 58.6189 248.199C58.6842 248.079 58.775 247.974 58.8856 247.889C61.899 245.481 64.9956 244.855 68.1756 246.013C71.6556 247.276 68.6956 253.432 68.1056 256.06C65.139 269.332 62.229 282.617 59.3756 295.913C59.089 297.244 58.3023 298.377 57.0156 299.312C56.8862 299.406 56.7342 299.469 56.5736 299.495C56.4129 299.521 56.2486 299.509 56.0956 299.46C54.4156 298.959 53.1323 298 52.2456 296.582C49.7456 292.589 44.8156 283.369 40.3156 281.53C40.1628 281.468 39.9932 281.45 39.8303 281.48C39.6674 281.51 39.5191 281.586 39.4056 281.697C38.259 282.799 37.5656 284.108 37.3256 285.625C36.9656 287.897 35.9423 292.667 34.2556 299.934C33.909 301.438 33.1523 302.515 31.9856 303.165C31.8212 303.256 31.6335 303.305 31.4408 303.309C31.2481 303.312 31.0569 303.269 30.8856 303.184C29.4856 302.491 28.2156 301.25 27.0756 299.46C23.6223 294.056 14.9456 281.125 1.04564 260.666C-2.92436 254.834 5.43565 253.971 9.02565 255.438C9.33898 255.568 9.56897 255.775 9.71564 256.06C14.029 264.194 18.9756 271.966 24.5556 279.376C25.1223 280.131 25.8556 280.716 26.7556 281.131C27.0556 281.273 27.369 281.295 27.6956 281.196Z" fill="#999999"/>
<path d="M700.017 297.383C706.407 299.807 716.437 300.299 719.917 293.604C721.087 291.357 720.867 288.172 721.137 285.99C721.637 282.053 726.397 282.545 729.157 283.668C730.997 284.411 731.437 285.739 731.157 287.587C730.424 292.372 729.754 295.418 729.147 296.724C725.067 305.527 715.747 307.328 706.347 306.91C688.837 306.13 677.457 293.929 678.147 277.624C678.347 272.851 679.834 268.338 682.607 264.085C694.307 246.081 718.207 248.625 733.077 260.993C737.507 264.68 733.667 269.443 728.627 268.979C728.286 268.949 727.969 268.803 727.737 268.57C724.187 265.005 722.327 262.646 716.617 260.845C705.47 257.328 697.027 260.031 691.287 268.951C684.917 278.849 687.547 292.657 700.017 297.383Z" fill="#999999"/>
<path d="M339.556 384.199C339.556 384.811 339.802 385.4 340.246 385.852C340.69 386.304 341.3 386.585 341.956 386.641C348.209 387.18 354.439 387.074 360.646 386.325C367.716 385.471 367.006 394.942 359.136 395.007C345.643 395.125 336.213 395.128 330.846 395.016C321.796 394.84 321.496 389.306 326.036 383.846C333.149 375.291 340.196 366.689 347.176 358.041C348.776 356.064 350.366 354.792 351.096 352.173C351.137 352.035 351.149 351.891 351.13 351.749C351.111 351.607 351.062 351.47 350.986 351.347C350.373 350.319 349.513 349.777 348.406 349.722C340.853 349.332 333.723 349.468 327.016 350.13C323.146 350.511 321.546 347.651 323.016 344.717C324.169 342.414 326.389 341.25 329.676 341.225C338.823 341.17 347.986 341.17 357.166 341.225C364.156 341.272 369.636 344.698 364.166 351.467C356.346 361.174 348.626 370.951 341.006 380.8C340.039 382.057 339.556 383.19 339.556 384.199Z" fill="#999999"/>
<path d="M401.289 385.418C404.249 388.195 418.239 386.811 422.409 386.272C427.789 385.576 428.089 391.983 424.629 394.054C423.662 394.629 422.119 394.945 419.999 395.001C410.585 395.236 401.172 395.19 391.759 394.862C383.339 394.564 382.919 389.429 387.319 384.09C395.159 374.582 402.972 365.052 410.759 355.5C412.129 353.81 413.969 349.929 409.909 349.725C402.329 349.341 394.845 349.505 387.459 350.217C387.03 350.26 386.596 350.206 386.194 350.061C385.792 349.915 385.433 349.682 385.149 349.381C381.469 345.472 386.059 341.433 390.819 341.34C400.592 341.154 410.369 341.163 420.149 341.368C426.959 341.507 430.189 346.029 425.829 351.377C416.309 363.046 408.279 373.229 401.739 381.927C401.185 382.663 400.912 383.555 400.919 384.601C400.925 384.917 401.049 385.189 401.289 385.418Z" fill="#999999"/>
<path d="M237.39 379.354C233.79 383.449 239.05 391.499 236.9 393.839C235.01 395.901 228.98 395.437 226.51 394.796C226.204 394.711 225.935 394.542 225.74 394.313C224.853 393.224 224.577 392.088 224.91 390.905C225.697 388.163 226.107 386.071 226.14 384.628C226.44 373.256 226.46 361.885 226.2 350.513C226.14 348.164 222.41 341.84 227.91 341.775C242.323 341.608 251.353 341.543 255 341.58C268.66 341.71 275.41 351.163 273.63 362.946C271.91 374.321 262.25 377.441 251.21 377.608C248.03 377.664 239.46 376.986 237.39 379.354ZM236.15 354.998L236.27 364.432C236.278 365.026 236.412 365.613 236.664 366.158C236.916 366.704 237.281 367.199 237.739 367.613C238.197 368.028 238.738 368.355 239.332 368.576C239.926 368.796 240.561 368.906 241.2 368.898L251.22 368.787C252.903 368.768 254.567 368.525 256.116 368.072C257.665 367.618 259.07 366.963 260.249 366.144C261.429 365.325 262.36 364.358 262.99 363.297C263.62 362.237 263.936 361.105 263.92 359.966L263.9 358.833C263.869 356.534 262.49 354.344 260.067 352.746C257.645 351.147 254.376 350.271 250.98 350.309L240.96 350.42C240.32 350.428 239.689 350.552 239.101 350.786C238.513 351.02 237.981 351.359 237.534 351.784C237.087 352.209 236.735 352.712 236.498 353.263C236.26 353.815 236.142 354.404 236.15 354.998Z" fill="#999999"/>
<path d="M298.195 395.436C295.555 395.706 291.055 395.427 291.685 391.834C292.091 389.525 292.325 387.2 292.385 384.86C292.638 375.562 292.818 366.258 292.925 356.948C292.965 353.336 292.495 349.724 292.145 346.112C291.595 340.327 302.505 340.559 302.455 344.477C302.385 349.547 301.875 354.775 301.965 359.65C302.125 367.902 302.105 376.154 301.905 384.405C301.855 386.597 302.395 388.677 302.845 390.784C303.665 394.647 301.545 395.093 298.195 395.436Z" fill="#999999"/>
<path d="M462.848 385.085C456.168 385.02 455.908 387.991 455.528 393.07C455.515 393.235 455.467 393.395 455.386 393.542C455.306 393.689 455.194 393.819 455.058 393.925C452.738 395.763 442.668 396.617 443.618 392.049C443.978 390.312 445.948 387.536 446.728 385.447C451.008 373.933 455.294 362.422 459.588 350.914C460.378 348.815 460.608 346.782 460.868 344.655C460.941 344.067 461.206 343.513 461.628 343.068C462.05 342.623 462.608 342.309 463.228 342.167C466.178 341.48 474.558 340.496 474.838 345.129C474.958 347.023 475.204 348.435 475.578 349.363C481.151 363.316 486.988 377.173 493.088 390.935C493.294 391.393 493.288 392.33 493.068 393.748C493.021 394.07 492.838 394.299 492.518 394.435C490.278 395.376 487.654 395.587 484.648 395.067C477.718 393.869 484.658 385.605 475.248 385.335C471.101 385.218 466.968 385.134 462.848 385.085ZM474.898 371.713C473.378 368.241 471.328 360.264 468.298 358.064C468.168 357.966 468.006 357.914 467.838 357.916C467.67 357.917 467.508 357.973 467.378 358.073C464.318 360.394 461.618 370.107 460.748 372.772C460.021 375.032 460.751 376.412 462.938 376.913C465.078 377.406 473.928 378.13 475.128 375.316C475.568 374.276 475.491 373.075 474.898 371.713Z" fill="#999999"/>
<path d="M388.973 469.515C390.633 467.88 392.783 465.633 395.043 467.983C395.853 468.828 396.203 470.323 396.973 471.493C397.173 471.79 397.427 471.836 397.733 471.632C399.163 470.685 400.283 470.026 400.843 468.345C402.743 462.727 410.913 459.505 411.963 467.778C412.01 468.15 412.23 468.308 412.623 468.252C414.357 467.992 415.43 467.076 415.843 465.503C415.943 465.12 416.207 464.931 416.633 464.937L418.603 464.974C418.686 464.977 418.767 464.996 418.841 465.031C418.915 465.065 418.981 465.114 419.033 465.174C419.085 465.233 419.123 465.303 419.144 465.378C419.164 465.452 419.168 465.53 419.153 465.606L417.983 471.836C417.948 472.036 417.98 472.241 418.077 472.423C418.173 472.605 418.327 472.755 418.519 472.85C418.71 472.946 418.929 472.983 419.143 472.956C419.357 472.929 419.557 472.839 419.713 472.7C422.647 470.1 424.827 467.029 426.253 463.488C426.42 463.074 426.743 462.863 427.223 462.857C428.277 462.845 428.993 463.021 429.373 463.386C429.66 463.665 429.67 464.256 429.403 465.16C428.71 467.469 428.373 469.837 428.393 472.263C428.394 472.493 428.46 472.719 428.584 472.918C428.708 473.118 428.886 473.283 429.101 473.399C429.315 473.514 429.558 473.576 429.806 473.577C430.054 473.578 430.298 473.519 430.513 473.405L433.063 472.068C433.437 471.876 433.747 471.944 433.993 472.273L434.833 473.424C435.107 473.783 435.057 474.099 434.683 474.371C431.493 476.72 425.483 478.262 425.153 472.653C425.149 472.591 425.126 472.532 425.086 472.482C425.046 472.433 424.991 472.395 424.928 472.374C424.865 472.353 424.797 472.35 424.732 472.365C424.667 472.38 424.608 472.413 424.563 472.458C423.817 473.232 423.073 473.932 422.333 474.557C418.703 477.612 413.833 475.959 414.453 471.233C414.5 470.843 414.32 470.694 413.913 470.787L411.833 471.27C411.46 471.356 411.2 471.567 411.053 471.901C409.063 476.488 404.113 478.568 400.583 474.074C400.403 473.845 400.193 473.817 399.953 473.99C397.773 475.507 395.883 475.321 394.283 473.433C393.793 472.848 393.713 471.845 393.313 471.168C393.229 471.023 393.109 470.899 392.963 470.807C392.817 470.715 392.649 470.657 392.473 470.637C392.297 470.618 392.119 470.639 391.954 470.697C391.789 470.755 391.641 470.85 391.523 470.973C390.117 472.446 388.973 474.086 388.093 475.894C387.908 476.275 387.582 476.581 387.174 476.759C386.767 476.936 386.304 476.973 385.87 476.862C385.436 476.751 385.059 476.5 384.807 476.154C384.554 475.808 384.443 475.39 384.493 474.975L385.783 464.593C385.817 464.302 385.68 464.135 385.373 464.092L381.173 463.433C381.056 463.413 380.945 463.368 380.85 463.302C380.754 463.235 380.677 463.149 380.625 463.049C380.572 462.95 380.545 462.84 380.547 462.729C380.548 462.618 380.578 462.51 380.633 462.411L381.303 461.278C381.477 460.975 381.75 460.833 382.123 460.851L386.053 461.056C386.38 461.074 386.563 460.929 386.603 460.619C387.153 456.301 388.803 449.059 394.613 448.307C399.213 447.722 400.493 452.522 398.913 455.939C397.173 459.709 394.21 462.223 390.023 463.479C389.643 463.591 389.423 463.832 389.363 464.203L388.603 469.348C388.537 469.762 388.66 469.818 388.973 469.515ZM390.863 459.746C393.133 458.549 397.753 453.85 396.493 451.241C396.403 451.053 396.263 450.89 396.087 450.765C395.911 450.641 395.704 450.559 395.485 450.528C395.265 450.497 395.041 450.517 394.831 450.586C394.621 450.655 394.433 450.772 394.283 450.925C391.95 453.321 390.64 456.159 390.353 459.44C390.313 459.842 390.483 459.944 390.863 459.746ZM407.273 465.141L405.883 466.181C405.801 466.243 405.749 466.332 405.738 466.43C405.727 466.527 405.757 466.625 405.823 466.701L405.953 466.85C406.426 467.397 406.977 467.85 407.485 468.107C407.993 468.365 408.417 468.407 408.663 468.224L408.823 468.113C408.946 468.023 409.022 467.88 409.045 467.692C409.069 467.505 409.041 467.276 408.962 467.02C408.883 466.764 408.755 466.485 408.585 466.199C408.416 465.914 408.208 465.627 407.973 465.355L407.843 465.206C407.811 465.167 407.77 465.133 407.724 465.109C407.677 465.084 407.626 465.068 407.573 465.062C407.52 465.056 407.466 465.06 407.414 465.073C407.363 465.087 407.315 465.11 407.273 465.141ZM407.383 471.483L404.413 469.988C404.18 469.877 404.023 469.936 403.943 470.165C403.503 471.415 403.567 472.647 404.133 473.86C404.177 473.959 404.246 474.046 404.335 474.114C404.423 474.182 404.528 474.229 404.641 474.25C404.754 474.272 404.872 474.269 404.983 474.239C405.095 474.21 405.198 474.157 405.283 474.083L407.483 472.115C407.757 471.867 407.723 471.657 407.383 471.483Z" fill="#999999"/>
<path d="M458.719 473.312C455.819 476.237 452.199 478.41 448.839 474.343C448.646 474.101 448.433 474.086 448.199 474.296C442.449 479.478 436.369 475.104 435.679 468.911C435.119 463.952 435.889 448.055 444.509 448.455C447.636 448.597 449.109 450.306 448.929 453.58C448.629 458.808 443.609 465.048 439.789 469.133C439.556 469.387 439.463 469.678 439.509 470.006C439.816 472.105 441.073 473.312 443.279 473.628C443.506 473.659 443.738 473.641 443.957 473.575C444.175 473.509 444.375 473.397 444.539 473.247C446.019 471.904 447.796 469.749 449.869 466.784C451.296 464.748 453.473 464.057 456.399 464.714C456.467 464.729 456.537 464.73 456.605 464.716C456.673 464.702 456.736 464.673 456.79 464.631C456.845 464.59 456.888 464.537 456.917 464.478C456.947 464.418 456.961 464.352 456.959 464.286C456.809 459.114 459.149 447.015 467.169 448.352C475.319 449.699 464.959 464.751 461.919 468.409C461.699 468.682 461.616 468.985 461.669 469.319C461.943 470.991 462.769 472.343 464.149 473.377C464.292 473.486 464.46 473.561 464.641 473.597C464.822 473.632 465.01 473.627 465.189 473.581C467.969 472.857 469.409 470.684 470.839 468.734C471.065 468.428 471.405 468.211 471.794 468.124C472.182 468.038 472.592 468.089 472.942 468.267C473.292 468.446 473.559 468.739 473.689 469.089C473.82 469.44 473.806 469.823 473.649 470.164C471.269 475.411 463.869 479.515 459.379 473.358C459.179 473.08 458.959 473.064 458.719 473.312ZM461.049 463.683C463.409 460 465.403 456.155 467.029 452.15C467.099 451.98 467.117 451.796 467.081 451.617C467.044 451.439 466.955 451.273 466.824 451.138C466.692 451.004 466.523 450.906 466.335 450.855C466.148 450.804 465.948 450.802 465.759 450.85C462.329 451.723 460.509 461.12 460.479 463.534C460.466 464.24 460.656 464.29 461.049 463.683ZM442.769 451.835C440.379 455.939 439.659 459.551 439.039 463.971C438.959 464.528 439.106 464.587 439.479 464.147C442.179 460.984 444.153 457.462 445.399 453.58C445.873 452.101 445.506 451.28 444.299 451.12C443.997 451.078 443.688 451.125 443.415 451.253C443.141 451.381 442.916 451.584 442.769 451.835ZM451.849 470.173C451.316 471.405 451.433 472.405 452.199 473.173C452.326 473.3 452.481 473.402 452.653 473.471C452.824 473.54 453.009 473.575 453.197 473.574C453.384 473.574 453.569 473.537 453.74 473.466C453.91 473.395 454.064 473.292 454.189 473.163L456.889 470.387C457.163 470.102 457.335 469.746 457.382 469.367C457.429 468.988 457.348 468.604 457.151 468.27C456.953 467.935 456.649 467.665 456.28 467.497C455.911 467.329 455.495 467.272 455.089 467.332C453.656 467.549 452.576 468.496 451.849 470.173Z" fill="#999999"/>
<path d="M250.842 466.456C250.837 467.831 250.54 469.192 249.969 470.461C249.397 471.73 248.562 472.882 247.511 473.851C246.46 474.82 245.213 475.588 243.843 476.11C242.472 476.632 241.004 476.898 239.523 476.893L237.303 476.886C235.822 476.881 234.356 476.605 232.99 476.075C231.623 475.544 230.382 474.768 229.339 473.792C228.295 472.816 227.468 471.659 226.906 470.386C226.344 469.114 226.057 467.751 226.063 466.375L226.072 463.887C226.077 462.511 226.374 461.15 226.946 459.881C227.517 458.612 228.353 457.46 229.404 456.491C230.455 455.522 231.701 454.755 233.072 454.233C234.442 453.711 235.91 453.444 237.391 453.449L239.611 453.457C241.092 453.461 242.558 453.737 243.925 454.268C245.291 454.799 246.532 455.574 247.576 456.55C248.62 457.526 249.446 458.683 250.008 459.956C250.57 461.229 250.857 462.592 250.852 463.967L250.842 466.456ZM238.393 473.323C239.47 473.34 240.54 473.146 241.543 472.751C242.545 472.356 243.46 471.768 244.236 471.021C245.011 470.274 245.632 469.382 246.063 468.396C246.494 467.411 246.726 466.35 246.746 465.276C246.766 464.202 246.574 463.135 246.181 462.136C245.787 461.137 245.2 460.225 244.453 459.454C243.706 458.682 242.814 458.065 241.827 457.637C240.84 457.21 239.778 456.981 238.701 456.964C237.624 456.946 236.554 457.141 235.552 457.536C234.549 457.931 233.634 458.518 232.858 459.266C232.083 460.013 231.462 460.905 231.031 461.89C230.601 462.876 230.369 463.936 230.348 465.01C230.328 466.085 230.52 467.152 230.914 468.151C231.307 469.15 231.894 470.061 232.641 470.833C233.388 471.605 234.281 472.222 235.268 472.649C236.255 473.076 237.317 473.305 238.393 473.323Z" fill="#999999"/>
<path d="M197.335 467.763C196.742 470.164 196.732 472.582 197.305 475.015C197.372 475.318 197.265 475.55 196.985 475.711C195.538 476.547 194.122 476.606 192.735 475.887C192.442 475.739 192.298 475.507 192.305 475.191L192.455 454.744C192.457 454.571 192.497 454.4 192.575 454.242C192.652 454.084 192.764 453.943 192.903 453.827C193.042 453.712 193.206 453.625 193.384 453.572C193.561 453.519 193.749 453.5 193.935 453.519L196.745 453.816C196.859 453.828 196.97 453.862 197.07 453.915C197.17 453.969 197.257 454.04 197.325 454.126C197.394 454.211 197.442 454.308 197.468 454.411C197.494 454.515 197.496 454.622 197.475 454.726C196.845 457.706 195.245 462.86 200.405 462.869C202.932 462.875 205.328 462.872 207.595 462.86C207.918 462.859 208.238 462.797 208.535 462.678C208.832 462.558 209.1 462.384 209.322 462.165C209.545 461.946 209.717 461.688 209.83 461.405C209.942 461.122 209.991 460.821 209.975 460.52L209.605 454.373C209.585 453.983 209.785 453.785 210.205 453.779L213.545 453.769C214.005 453.769 214.238 453.983 214.245 454.41L214.435 475.535C214.435 475.956 214.212 476.172 213.765 476.185L210.145 476.287C210.039 476.289 209.934 476.27 209.836 476.231C209.739 476.192 209.651 476.133 209.58 476.06C209.509 475.987 209.456 475.901 209.424 475.807C209.392 475.713 209.382 475.614 209.395 475.516C209.642 473.702 209.862 471.966 210.055 470.307C210.615 465.441 201.275 466.555 197.835 467.308C197.712 467.333 197.6 467.389 197.511 467.469C197.422 467.55 197.361 467.652 197.335 467.763Z" fill="#999999"/>
<path d="M342.77 457.047L337.37 457.317C337.207 457.327 337.046 457.278 336.922 457.181C336.799 457.084 336.722 456.946 336.71 456.797L336.56 455.144C336.543 454.958 336.568 454.771 336.634 454.595C336.701 454.419 336.806 454.258 336.944 454.122C337.082 453.986 337.249 453.879 337.434 453.807C337.619 453.735 337.819 453.7 338.02 453.705C341.706 453.791 345.16 453.835 348.38 453.835C350.1 453.835 355.27 452.795 356.27 454.968C356.55 455.574 356.48 456.224 356.06 456.918C355.88 457.215 355.606 457.348 355.24 457.317L351.25 457.02C350.937 456.995 350.622 457.031 350.326 457.126C350.029 457.222 349.757 457.373 349.527 457.572C349.297 457.77 349.115 458.011 348.991 458.279C348.868 458.547 348.806 458.836 348.81 459.127L348.99 475.414C348.996 475.829 348.793 476.12 348.38 476.287C347.073 476.795 345.803 476.739 344.57 476.12C344.323 475.996 344.2 475.801 344.2 475.535L344.48 458.57C344.484 458.364 344.443 458.16 344.358 457.97C344.273 457.779 344.146 457.607 343.985 457.464C343.825 457.321 343.634 457.21 343.425 457.139C343.216 457.067 342.993 457.036 342.77 457.047Z" fill="#999999"/>
<path d="M530.069 472.953L541.99 473.121C542.164 473.123 542.336 473.162 542.494 473.232C542.651 473.303 542.791 473.404 542.902 473.529C543.013 473.655 543.094 473.801 543.138 473.958C543.183 474.115 543.19 474.279 543.159 474.439C542.939 475.553 542.269 476.157 541.149 476.25C535.723 476.695 530.306 476.72 524.899 476.324C524.493 476.293 524.299 476.089 524.319 475.711C524.773 468.691 524.73 461.681 524.19 454.679C524.181 454.564 524.199 454.447 524.242 454.338C524.284 454.229 524.351 454.129 524.438 454.045C524.524 453.961 524.629 453.895 524.744 453.851C524.86 453.807 524.984 453.785 525.11 453.788C529.196 453.887 533.379 453.831 537.659 453.621C539.459 453.534 540.929 453.813 542.069 454.457C542.42 454.65 542.686 454.951 542.822 455.307C542.958 455.664 542.955 456.053 542.813 456.408C542.672 456.762 542.4 457.06 542.047 457.248C541.694 457.436 541.281 457.503 540.879 457.437C537.106 456.824 533.373 456.889 529.68 457.632C529.393 457.688 529.186 457.843 529.06 458.097C528.18 459.923 528.249 461.343 529.269 462.359C531.009 464.086 535.409 463.176 537.889 463.046C537.986 463.041 538.083 463.054 538.173 463.085C538.264 463.116 538.347 463.163 538.418 463.225C538.488 463.287 538.544 463.361 538.582 463.444C538.62 463.526 538.64 463.615 538.639 463.705V466.268C538.64 466.346 538.623 466.423 538.59 466.495C538.557 466.566 538.508 466.631 538.447 466.685C538.387 466.739 538.315 466.781 538.236 466.808C538.157 466.835 538.073 466.847 537.99 466.844L530.94 466.509C530.638 466.496 530.337 466.544 530.058 466.651C529.779 466.757 529.528 466.92 529.324 467.126C529.12 467.332 528.967 467.578 528.877 467.845C528.786 468.112 528.76 468.395 528.8 468.673L529.31 472.331C529.37 472.74 529.623 472.947 530.069 472.953Z" fill="#999999"/>
<path d="M280.105 465.793C282.085 462.685 283.449 459.351 284.195 455.792C284.402 454.802 284.769 454.223 285.295 454.056C285.855 453.888 286.635 453.808 287.635 453.814C287.878 453.816 288.117 453.872 288.331 453.978C288.546 454.084 288.729 454.237 288.867 454.424C289.004 454.611 289.091 454.826 289.12 455.051C289.15 455.276 289.121 455.505 289.035 455.718L281.445 474.428C281.329 474.71 281.126 474.953 280.862 475.128C280.597 475.303 280.283 475.402 279.959 475.412C279.634 475.422 279.313 475.342 279.037 475.184C278.761 475.026 278.541 474.795 278.405 474.521L275.195 467.928C275.122 467.778 275.003 467.651 274.853 467.563C274.703 467.475 274.528 467.43 274.35 467.433C274.173 467.436 274 467.487 273.854 467.58C273.707 467.673 273.593 467.804 273.525 467.956L270.465 474.874C270.363 475.104 270.189 475.301 269.967 475.44C269.744 475.579 269.482 475.654 269.214 475.655C268.945 475.656 268.683 475.583 268.459 475.446C268.235 475.308 268.06 475.113 267.955 474.883L259.265 455.903C258.772 454.82 259.145 454.161 260.385 453.926C262.505 453.517 263.325 454.121 263.965 455.996C265.145 459.475 266.629 462.837 268.415 466.08C268.466 466.17 268.539 466.247 268.629 466.304C268.719 466.361 268.822 466.396 268.93 466.406C269.037 466.416 269.145 466.401 269.244 466.362C269.343 466.323 269.429 466.261 269.495 466.183C272.155 463.075 272.252 459.868 269.785 456.563C269.6 456.314 269.488 456.025 269.459 455.724C269.429 455.423 269.484 455.12 269.618 454.845C269.752 454.569 269.96 454.33 270.222 454.151C270.484 453.972 270.792 453.86 271.115 453.823C272.102 453.718 273.015 453.854 273.855 454.232C274.195 454.387 274.405 454.634 274.485 454.975C275.379 458.862 276.979 462.474 279.285 465.811C279.565 466.213 279.839 466.207 280.105 465.793Z" fill="#999999"/>
<path d="M322.794 453.935L320.554 453.931C320.024 453.93 319.593 454.329 319.592 454.821L319.553 475.546C319.552 476.039 319.981 476.438 320.511 476.439L322.751 476.443C323.282 476.444 323.712 476.045 323.713 475.553L323.752 454.828C323.753 454.336 323.324 453.936 322.794 453.935Z" fill="#999999"/>
<path d="M510.178 464.502C514.568 468.95 512.528 476.332 505.418 476.601C501.431 476.75 497.478 476.644 493.558 476.285C493.426 476.272 493.303 476.213 493.215 476.12C493.126 476.028 493.077 475.908 493.078 475.784V454.622C493.078 454.412 493.167 454.21 493.326 454.061C493.486 453.911 493.702 453.826 493.928 453.824C497.688 453.805 504.828 453.099 507.848 454.659C509.788 455.656 510.788 457.334 510.848 459.692C510.888 461.011 510.188 462.218 509.908 463.657C509.848 463.979 509.938 464.261 510.178 464.502ZM497.558 458.606L497.578 461.8C497.581 462.138 497.727 462.462 497.986 462.7C498.244 462.938 498.594 463.072 498.958 463.072L503.058 463.063C503.529 463.061 503.995 462.988 504.43 462.847C504.864 462.706 505.258 462.5 505.59 462.242C505.922 461.983 506.184 461.676 506.362 461.339C506.54 461.002 506.631 460.641 506.628 460.277V460.054C506.623 459.322 506.242 458.621 505.569 458.106C504.896 457.59 503.986 457.303 503.038 457.306L498.938 457.315C498.756 457.315 498.576 457.348 498.408 457.413C498.24 457.478 498.087 457.574 497.959 457.694C497.831 457.814 497.729 457.956 497.66 458.112C497.592 458.269 497.557 458.437 497.558 458.606ZM507.816 469.248C507.815 468.898 507.739 468.552 507.594 468.229C507.448 467.906 507.236 467.613 506.968 467.367C506.701 467.12 506.384 466.925 506.035 466.792C505.686 466.659 505.313 466.592 504.936 466.593L500.196 466.608C499.819 466.609 499.446 466.68 499.099 466.815C498.751 466.95 498.435 467.147 498.17 467.395C497.904 467.644 497.694 467.938 497.551 468.262C497.408 468.586 497.335 468.932 497.336 469.282L497.34 470.397C497.342 470.747 497.417 471.093 497.563 471.416C497.708 471.739 497.921 472.032 498.188 472.278C498.455 472.525 498.772 472.72 499.121 472.853C499.47 472.986 499.843 473.054 500.22 473.052L504.96 473.037C505.337 473.036 505.71 472.966 506.058 472.831C506.406 472.695 506.721 472.498 506.987 472.25C507.252 472.001 507.463 471.707 507.606 471.383C507.749 471.059 507.822 470.713 507.82 470.363L507.816 469.248Z" fill="#999999"/>
<path d="M377.007 473.405C375.977 471.604 373.267 469.097 373.437 466.664C373.687 462.95 378.317 462.188 380.937 464.445C381.169 464.639 381.312 464.909 381.337 465.199C381.363 465.488 381.268 465.776 381.073 466.003C380.878 466.23 380.598 466.379 380.288 466.421C379.979 466.463 379.664 466.394 379.407 466.227L378.587 465.717C378.421 465.608 378.219 465.557 378.016 465.573C377.813 465.589 377.623 465.67 377.478 465.802C377.333 465.935 377.242 466.11 377.222 466.298C377.202 466.486 377.253 466.674 377.367 466.831C378.587 468.558 380.367 470.257 380.687 472.207C381.497 477.101 375.877 478.401 372.687 475.039C372.421 474.748 372.427 474.464 372.707 474.185L373.507 473.405C373.727 473.188 373.981 473.145 374.267 473.275L376.247 474.148C376.358 474.197 376.482 474.212 376.603 474.192C376.723 474.171 376.834 474.115 376.918 474.033C377.003 473.95 377.057 473.845 377.073 473.732C377.089 473.62 377.066 473.505 377.007 473.405Z" fill="#999999"/>
</svg>
