<svg width="1284" height="1284" viewBox="0 0 1284 1284" fill="none" xmlns="http://www.w3.org/2000/svg">
<path d="M632.039 208.071C632.032 207.7 631.879 207.346 631.611 207.088C631.344 206.83 630.986 206.689 630.615 206.696L619.516 206.889C619.332 206.892 619.151 206.932 618.982 207.005C618.814 207.078 618.661 207.184 618.534 207.316C618.406 207.449 618.305 207.605 618.238 207.776C618.171 207.947 618.138 208.13 618.141 208.313L619.317 275.703C619.324 276.074 619.477 276.428 619.744 276.686C620.012 276.944 620.37 277.085 620.741 277.079L631.84 276.885C632.023 276.882 632.205 276.842 632.373 276.769C632.542 276.696 632.695 276.59 632.822 276.458C632.95 276.325 633.05 276.169 633.118 275.998C633.185 275.827 633.218 275.644 633.215 275.461L632.039 208.071Z" stroke="#999999" stroke-width="2"/>
<path d="M551.536 224.287C551.73 224.269 551.925 224.289 552.111 224.347C552.297 224.405 552.469 224.499 552.619 224.623C552.768 224.747 552.892 224.9 552.982 225.072C553.073 225.245 553.128 225.433 553.146 225.627L558.036 279.607C558.072 279.996 558.26 280.356 558.56 280.607C558.859 280.858 559.246 280.98 559.636 280.947L570.586 279.957C570.781 279.94 570.97 279.886 571.143 279.796C571.317 279.706 571.471 279.583 571.596 279.433C571.722 279.283 571.816 279.11 571.875 278.924C571.933 278.737 571.954 278.541 571.936 278.347L566.996 224.267C566.978 224.072 566.999 223.876 567.057 223.69C567.116 223.503 567.21 223.33 567.336 223.181C567.461 223.031 567.615 222.908 567.788 222.818C567.962 222.728 568.151 222.673 568.346 222.657L583.586 221.377C583.78 221.36 583.968 221.306 584.141 221.217C584.314 221.127 584.467 221.005 584.592 220.856C584.718 220.708 584.813 220.536 584.872 220.351C584.931 220.166 584.952 219.971 584.936 219.777L584.046 209.247C584.03 209.052 583.975 208.863 583.885 208.689C583.795 208.516 583.672 208.362 583.522 208.237C583.372 208.111 583.199 208.016 583.013 207.958C582.827 207.9 582.63 207.879 582.436 207.897L534.996 212.137C534.802 212.153 534.614 212.208 534.441 212.297C534.268 212.386 534.115 212.509 533.989 212.657C533.864 212.806 533.769 212.978 533.71 213.163C533.651 213.348 533.629 213.543 533.646 213.737L534.546 224.337C534.562 224.531 534.617 224.719 534.706 224.892C534.795 225.065 534.918 225.218 535.066 225.343C535.215 225.469 535.387 225.563 535.572 225.622C535.757 225.681 535.952 225.703 536.146 225.687L551.536 224.287Z" stroke="#999999" stroke-width="2"/>
<path d="M674.699 220.337C671.472 227.363 672.155 233.64 676.749 239.167C682.729 246.367 695.149 249.237 701.509 252.427C711.739 257.557 707.429 265.997 697.759 266.427C689.865 266.773 682.669 264.537 676.169 259.717C674.895 258.77 673.689 258.91 672.549 260.137C670.149 262.723 668.055 265.383 666.269 268.117C666.118 268.347 666.058 268.625 666.098 268.896C666.139 269.167 666.278 269.413 666.488 269.587C671.682 273.88 677.609 276.97 684.269 278.857C698.179 282.787 718.849 279.357 721.139 262.067C722.119 254.657 719.009 247.757 712.699 243.927C706.785 240.333 699.645 237.087 691.279 234.187C688.029 233.067 685.129 228.307 688.269 225.197C692.839 220.677 702.649 222.517 707.979 225.277C709.985 226.317 711.885 227.32 713.678 228.287C713.929 228.423 714.217 228.472 714.499 228.425C714.78 228.378 715.037 228.238 715.229 228.027C717.355 225.693 719.449 223.223 721.509 220.617C722.599 219.237 722.789 218.157 721.339 216.897C709.719 206.707 682.239 203.897 674.699 220.337Z" stroke="#999999" stroke-width="2"/>
<path d="M788.106 279.857C788.425 279.919 788.718 280.078 788.943 280.313C789.169 280.547 789.316 280.846 789.366 281.167L791.216 293.207C791.268 293.527 791.416 293.823 791.641 294.056C791.867 294.288 792.158 294.446 792.476 294.507L803.906 296.777C804.16 296.828 804.423 296.815 804.671 296.74C804.919 296.666 805.145 296.531 805.329 296.348C805.513 296.165 805.649 295.94 805.725 295.692C805.801 295.444 805.815 295.182 805.766 294.927L792.346 223.847C792.287 223.535 792.135 223.247 791.911 223.023C791.686 222.798 791.398 222.646 791.086 222.587L781.726 220.857C781.419 220.802 781.101 220.838 780.815 220.963C780.528 221.088 780.285 221.294 780.116 221.557L740.856 282.167C740.715 282.384 740.63 282.632 740.608 282.889C740.585 283.146 740.626 283.405 740.727 283.643C740.827 283.881 740.985 284.09 741.185 284.253C741.385 284.416 741.623 284.527 741.876 284.577L753.356 286.777C753.675 286.84 754.006 286.802 754.303 286.67C754.6 286.537 754.849 286.316 755.016 286.037L761.216 275.677C761.383 275.398 761.632 275.177 761.929 275.045C762.226 274.912 762.557 274.875 762.876 274.937L788.106 279.857Z" stroke="#999999" stroke-width="2"/>
<path d="M497.509 262.708C502.416 257.761 504.869 252.111 504.869 245.758C504.859 233.538 496.779 222.678 484.039 221.538C481.006 221.265 475.679 221.905 468.059 223.458C462.779 224.531 457.516 225.605 452.269 226.678C451.056 226.925 450.569 227.655 450.809 228.868L463.779 293.888C464.026 295.135 464.773 295.635 466.019 295.388L475.739 293.498C476.254 293.399 476.708 293.099 477.002 292.665C477.296 292.23 477.407 291.695 477.309 291.178L473.479 271.448C473.393 271.035 473.559 270.788 473.979 270.708L483.459 268.828C483.601 268.801 483.748 268.813 483.883 268.862C484.019 268.911 484.138 268.996 484.229 269.108L498.949 287.368C499.669 288.261 500.589 288.591 501.709 288.358L513.239 285.978C513.478 285.929 513.7 285.819 513.884 285.66C514.068 285.5 514.207 285.296 514.289 285.068C514.371 284.839 514.391 284.594 514.349 284.355C514.307 284.117 514.204 283.894 514.049 283.708L497.479 263.408C497.279 263.168 497.289 262.935 497.509 262.708Z" stroke="#999999" stroke-width="2"/>
<path d="M882.692 295.517C882.671 295.584 882.629 295.643 882.572 295.685C882.515 295.726 882.447 295.749 882.377 295.749C882.306 295.749 882.238 295.726 882.181 295.685C882.124 295.643 882.083 295.584 882.062 295.517L865.592 241.417C865.577 241.366 865.55 241.32 865.514 241.282C865.477 241.243 865.432 241.214 865.382 241.197L852.262 236.987C852.179 236.962 852.091 236.97 852.014 237.009C851.937 237.048 851.879 237.116 851.852 237.197L830.142 303.337C830.128 303.379 830.122 303.424 830.126 303.468C830.13 303.512 830.142 303.555 830.163 303.594C830.183 303.633 830.211 303.668 830.246 303.696C830.28 303.724 830.319 303.745 830.362 303.757L842.912 307.767C842.994 307.793 843.083 307.785 843.159 307.746C843.236 307.706 843.294 307.639 843.322 307.557L858.162 262.307C858.184 262.24 858.226 262.182 858.284 262.142C858.341 262.101 858.41 262.079 858.48 262.081C858.551 262.082 858.619 262.105 858.675 262.148C858.731 262.19 858.772 262.25 858.792 262.317L875.332 318.287C875.346 318.338 875.373 318.385 875.41 318.423C875.446 318.461 875.492 318.49 875.542 318.507L888.022 322.607C888.104 322.633 888.193 322.625 888.269 322.586C888.346 322.546 888.404 322.479 888.432 322.397L910.112 256.297C910.137 256.215 910.129 256.126 910.09 256.05C910.051 255.973 909.983 255.915 909.902 255.887L897.332 251.697C897.29 251.683 897.245 251.678 897.201 251.682C897.157 251.685 897.114 251.698 897.075 251.718C897.036 251.739 897.001 251.767 896.973 251.801C896.945 251.835 896.924 251.875 896.912 251.917L882.692 295.517Z" stroke="#999999" stroke-width="2"/>
<path d="M413.827 295.636C414.146 295.533 414.489 295.53 414.809 295.628C415.129 295.727 415.411 295.921 415.617 296.186L423.137 305.856C423.343 306.123 423.627 306.319 423.95 306.417C424.272 306.516 424.617 306.512 424.937 306.406L435.857 302.766C436.108 302.681 436.335 302.537 436.518 302.345C436.7 302.153 436.833 301.919 436.905 301.664C436.977 301.408 436.986 301.14 436.93 300.88C436.875 300.621 436.757 300.379 436.587 300.176L390.397 244.676C390.187 244.426 389.908 244.245 389.594 244.156C389.28 244.067 388.947 244.074 388.637 244.176L379.677 247.116C379.368 247.217 379.096 247.408 378.897 247.665C378.697 247.921 378.579 248.232 378.557 248.556L373.777 320.536C373.759 320.802 373.807 321.068 373.916 321.311C374.024 321.555 374.191 321.768 374.401 321.931C374.612 322.095 374.859 322.205 375.121 322.251C375.384 322.297 375.654 322.278 375.907 322.196L386.807 318.666C387.124 318.562 387.401 318.363 387.601 318.097C387.801 317.831 387.915 317.509 387.927 317.176L388.387 305.056C388.399 304.723 388.513 304.402 388.713 304.135C388.913 303.869 389.19 303.67 389.507 303.566L413.827 295.636Z" stroke="#999999" stroke-width="2"/>
<path d="M708.029 386.997C708.029 386.854 707.972 386.716 707.871 386.615C707.769 386.514 707.632 386.457 707.489 386.457H576.009C575.866 386.457 575.728 386.514 575.627 386.615C575.526 386.716 575.469 386.854 575.469 386.997V399.977C575.469 400.12 575.526 400.258 575.627 400.359C575.728 400.46 575.866 400.517 576.009 400.517H707.489C707.632 400.517 707.769 400.46 707.871 400.359C707.972 400.258 708.029 400.12 708.029 399.977V386.997Z" stroke="#999999" stroke-width="2"/>
<path d="M487.776 506.525C441.926 507.895 408.056 537.725 408.016 585.135C407.982 618.475 407.976 651.812 407.996 685.145C408.002 696.392 408.082 703.055 408.236 705.135C411.426 748.255 442.946 774.045 484.826 776.725C536.236 780.025 577.606 752.625 577.596 696.885C577.589 659.805 577.619 622.722 577.686 585.635C577.712 572.875 575.579 561.532 571.286 551.605C556.736 517.975 522.996 505.475 487.776 506.525Z" stroke="#999999" stroke-width="2"/>
<path d="M746.086 720.077C747.632 727.217 749.182 734.347 750.736 741.467C753.866 755.887 756.666 765.757 770.346 770.407C773.246 771.393 777.402 771.91 782.816 771.957C792.136 772.037 801.462 772.023 810.796 771.917C811.236 771.91 811.452 771.687 811.446 771.247L811.366 756.207C811.365 756.015 811.286 755.828 811.146 755.687C803.116 747.787 802.006 741.077 799.006 728.267C782.206 656.487 765.382 584.703 748.536 512.917C748.469 512.623 748.286 512.477 747.986 512.477L688.536 512.597C688.182 512.597 687.962 512.77 687.876 513.117C670.222 588.37 652.592 663.63 634.986 738.897C633.486 745.337 630.316 750.823 625.476 755.357C625.196 755.617 625.056 755.937 625.056 756.317L625.016 771.177C625.016 771.61 625.232 771.83 625.666 771.837C642.726 772.137 653.922 772.143 659.256 771.857C674.566 771.047 681.886 759.607 684.866 745.877C686.752 737.203 688.562 728.523 690.296 719.837C690.319 719.727 690.378 719.628 690.463 719.557C690.549 719.486 690.656 719.447 690.766 719.447H745.306C745.732 719.447 745.992 719.657 746.086 720.077Z" stroke="#999999" stroke-width="2"/>
<path d="M928.698 624.407C928.698 624.357 928.716 624.309 928.747 624.27C928.779 624.231 928.823 624.204 928.872 624.194C928.921 624.183 928.972 624.19 929.016 624.212C929.061 624.235 929.097 624.272 929.118 624.317L971.968 719.037C972.094 719.311 972.304 719.447 972.598 719.447H1002.5C1002.7 719.448 1002.89 719.391 1003.06 719.283C1003.23 719.174 1003.36 719.02 1003.45 718.837L1046.22 624.307C1046.24 624.27 1046.27 624.24 1046.3 624.221C1046.34 624.202 1046.38 624.197 1046.42 624.205C1046.47 624.213 1046.5 624.234 1046.53 624.265C1046.56 624.296 1046.57 624.336 1046.58 624.377L1046.6 769.767C1046.6 770.307 1046.86 770.577 1047.4 770.577L1101.49 770.607C1101.67 770.607 1101.85 770.535 1101.98 770.405C1102.11 770.276 1102.18 770.1 1102.18 769.917L1102.17 513.187C1102.17 512.781 1101.97 512.577 1101.57 512.577L1047.3 512.527C1047.1 512.527 1046.9 512.585 1046.73 512.695C1046.56 512.805 1046.42 512.962 1046.34 513.147L988.008 642.127C987.977 642.193 987.929 642.249 987.868 642.288C987.806 642.327 987.735 642.348 987.663 642.348C987.59 642.348 987.519 642.327 987.458 642.288C987.397 642.249 987.348 642.193 987.318 642.127L928.818 512.757C928.787 512.691 928.739 512.636 928.679 512.597C928.619 512.558 928.549 512.537 928.478 512.537L873.788 512.587C873.634 512.587 873.486 512.648 873.378 512.757C873.269 512.866 873.208 513.014 873.208 513.167C873.248 584.994 873.244 656.817 873.198 728.637C873.184 739.664 869.658 748.694 862.618 755.727C862.413 755.938 862.298 756.222 862.298 756.517L862.258 771.337C862.258 771.657 862.418 771.821 862.738 771.827C882.411 772.147 895.008 772.157 900.528 771.857C924.388 770.547 928.608 749.867 928.678 730.387C928.818 695.001 928.824 659.674 928.698 624.407Z" stroke="#999999" stroke-width="2"/>
<path d="M309.169 644.345C337.189 635.165 342.049 617.835 341.559 590.495C341.419 582.725 341.869 569.305 340.029 559.625C334.309 529.575 307.709 512.735 278.269 512.625C246.196 512.505 214.119 512.505 182.039 512.625C181.839 512.628 181.648 512.709 181.508 512.851C181.368 512.994 181.289 513.185 181.289 513.385V769.875C181.289 770.063 181.365 770.244 181.5 770.377C181.635 770.51 181.818 770.585 182.009 770.585L236.269 770.595C236.457 770.595 236.638 770.52 236.771 770.387C236.904 770.254 236.979 770.073 236.979 769.885V665.885C236.979 665.505 237.169 665.312 237.549 665.305C246.779 665.095 255.999 665.285 265.219 665.205C280.209 665.065 289.229 674.515 289.249 689.635C289.262 703.222 289.239 716.802 289.179 730.375C289.079 751.915 294.929 771.495 320.279 771.885C331.119 772.052 341.976 772.055 352.849 771.895C353.242 771.895 353.439 771.695 353.439 771.295V756.595C353.439 756.275 353.336 755.988 353.129 755.735C351.309 753.525 349.139 751.265 347.749 749.065C344.382 743.732 342.689 738.172 342.669 732.385C342.622 719.452 342.596 706.515 342.589 693.575C342.589 686.475 342.136 681.048 341.229 677.295C337.262 660.835 326.579 649.999 309.179 644.785C309.132 644.772 309.09 644.744 309.059 644.705C309.029 644.666 309.012 644.618 309.011 644.569C309.01 644.52 309.025 644.471 309.053 644.431C309.082 644.391 309.122 644.361 309.169 644.345Z" stroke="#999999" stroke-width="2"/>
<path d="M708.026 883.648C708.026 883.45 707.947 883.259 707.807 883.118C707.666 882.977 707.475 882.898 707.276 882.898H576.156C575.957 882.898 575.767 882.977 575.626 883.118C575.485 883.259 575.406 883.45 575.406 883.648V896.128C575.406 896.327 575.485 896.518 575.626 896.659C575.767 896.799 575.957 896.878 576.156 896.878H707.276C707.475 896.878 707.666 896.799 707.807 896.659C707.947 896.518 708.026 896.327 708.026 896.128V883.648Z" stroke="#999999" stroke-width="2"/>
<path d="M410.46 1003.19C416.253 1001.02 419.943 996.926 421.53 990.906C424.58 979.336 417.35 971.046 407.02 967.386C398.74 964.459 390.667 961.689 382.8 959.075C381.92 958.782 381.33 959.072 381.03 959.946L359.02 1023.89C358.927 1024.15 358.944 1024.45 359.068 1024.71C359.192 1024.96 359.412 1025.16 359.68 1025.26C366.28 1027.62 372.95 1029.93 379.69 1032.19C387.57 1034.83 393.23 1036.09 396.67 1035.99C412.43 1035.5 421.45 1015.56 410.34 1003.74C410.302 1003.7 410.274 1003.65 410.259 1003.59C410.244 1003.54 410.242 1003.48 410.254 1003.43C410.266 1003.37 410.291 1003.32 410.327 1003.28C410.363 1003.24 410.408 1003.21 410.46 1003.19Z" stroke="#999999" stroke-width="2"/>
<path d="M884.779 988.486C879.809 988.606 875.279 984.716 879.179 980.016C884.529 973.586 894.089 973.026 902.139 974.156C902.59 974.22 903.049 974.12 903.433 973.874C903.817 973.628 904.099 973.253 904.229 972.816C905.196 969.576 906.009 966.339 906.669 963.106C906.982 961.586 906.479 960.689 905.159 960.416C892.329 957.796 872.569 961.666 865.889 974.346C862.429 980.906 863.259 989.696 868.159 995.296C872.439 1000.2 879.379 1001.66 885.769 1001.43C891.516 1001.23 897.266 1001.13 903.019 1001.14C909.509 1001.16 912.909 1007.91 907.829 1012.5C900.669 1018.97 889.679 1020.03 880.449 1018.05C880.072 1017.96 879.678 1018.02 879.344 1018.21C879.009 1018.4 878.758 1018.71 878.639 1019.08C877.526 1022.41 876.662 1025.77 876.049 1029.16C875.816 1030.44 876.472 1031.24 878.019 1031.56C886.826 1033.34 894.882 1033.17 902.189 1031.05C915.359 1027.21 927.479 1016.34 923.399 1001.66C918.689 984.686 897.869 988.176 884.779 988.486Z" stroke="#999999" stroke-width="2"/>
<path d="M489.823 1032.4C485.243 1054.09 455.663 1047.09 459.853 1027.37C462.706 1013.89 465.636 1000.38 468.643 986.848C468.684 986.662 468.688 986.471 468.655 986.284C468.622 986.097 468.553 985.919 468.45 985.759C468.348 985.599 468.215 985.461 468.06 985.353C467.904 985.244 467.728 985.168 467.543 985.128L456.813 982.748C455.826 982.528 455.223 982.911 455.003 983.898C452.643 994.478 450.309 1005.25 448.003 1016.23C446.363 1024.05 445.509 1028.85 445.443 1030.63C445.083 1040.61 449.373 1049.33 458.053 1054.62C471.823 1063.01 490.943 1060.69 498.963 1046.82C500.823 1043.6 502.729 1037.62 504.683 1028.9C507.109 1018.03 509.456 1007.19 511.723 996.378C511.808 995.975 511.73 995.554 511.506 995.208C511.281 994.861 510.928 994.617 510.523 994.528L500.273 992.288C499.099 992.028 498.386 992.484 498.133 993.658C495.393 1006.23 492.623 1019.14 489.823 1032.4Z" stroke="#999999" stroke-width="2"/>
<path d="M807.868 1033.93L817.228 1031.82C817.41 1031.78 817.598 1031.79 817.774 1031.85C817.95 1031.9 818.107 1032.01 818.228 1032.15L834.128 1050.45C834.248 1050.59 834.405 1050.7 834.582 1050.75C834.758 1050.81 834.947 1050.82 835.128 1050.78L847.388 1047.94C847.664 1047.88 847.919 1047.74 848.128 1047.55C848.337 1047.36 848.492 1047.12 848.579 1046.85C848.666 1046.58 848.681 1046.29 848.623 1046.01C848.565 1045.74 848.436 1045.48 848.248 1045.27L831.058 1025.77C830.791 1025.47 830.801 1025.17 831.088 1024.89C835.828 1020.24 838.111 1014.91 837.938 1008.89C837.488 992.748 825.188 981.618 808.788 985.118C800.468 986.891 792.281 988.792 784.228 990.818C783.83 990.92 783.488 991.173 783.275 991.523C783.062 991.873 782.995 992.291 783.088 992.688L798.678 1058C798.766 1058.36 798.993 1058.68 799.311 1058.88C799.629 1059.07 800.012 1059.14 800.378 1059.06L810.708 1056.74C810.953 1056.68 811.184 1056.58 811.388 1056.43C811.592 1056.29 811.766 1056.1 811.898 1055.89C812.03 1055.68 812.118 1055.44 812.158 1055.19C812.197 1054.94 812.187 1054.69 812.128 1054.45L807.358 1034.74C807.337 1034.65 807.334 1034.56 807.349 1034.47C807.363 1034.39 807.395 1034.3 807.443 1034.23C807.49 1034.15 807.552 1034.09 807.625 1034.03C807.698 1033.98 807.781 1033.95 807.868 1033.93Z" stroke="#999999" stroke-width="2"/>
<path d="M720.076 1015.1C720.052 1014.91 720.065 1014.72 720.115 1014.54C720.164 1014.36 720.249 1014.19 720.365 1014.04C720.48 1013.9 720.623 1013.77 720.787 1013.68C720.95 1013.59 721.13 1013.53 721.316 1013.51L753.466 1009.55C753.836 1009.5 754.173 1009.31 754.403 1009.01C754.633 1008.72 754.738 1008.35 754.696 1007.98L753.576 997.957C753.555 997.77 753.497 997.589 753.405 997.424C753.314 997.26 753.19 997.115 753.042 996.999C752.894 996.883 752.725 996.797 752.543 996.747C752.362 996.697 752.173 996.683 751.986 996.707L705.986 1002.47C705.8 1002.49 705.62 1002.55 705.457 1002.64C705.293 1002.73 705.15 1002.86 705.035 1003C704.919 1003.15 704.835 1003.32 704.785 1003.5C704.735 1003.68 704.722 1003.87 704.746 1004.06L713.036 1070.82C713.059 1071 713.119 1071.18 713.212 1071.34C713.304 1071.5 713.428 1071.65 713.576 1071.76C713.723 1071.88 713.892 1071.96 714.072 1072.01C714.253 1072.06 714.441 1072.07 714.626 1072.05L761.436 1066.2C761.802 1066.15 762.136 1065.96 762.365 1065.67C762.595 1065.38 762.703 1065.01 762.666 1064.65L761.676 1054.71C761.657 1054.52 761.601 1054.34 761.511 1054.17C761.422 1054 761.299 1053.86 761.152 1053.74C761.005 1053.62 760.836 1053.53 760.655 1053.48C760.473 1053.43 760.283 1053.41 760.096 1053.44L726.786 1057.54C726.599 1057.56 726.41 1057.55 726.228 1057.5C726.047 1057.45 725.877 1057.36 725.729 1057.24C725.581 1057.13 725.458 1056.98 725.366 1056.82C725.275 1056.65 725.217 1056.47 725.196 1056.29L723.636 1043.08C723.591 1042.7 723.694 1042.33 723.925 1042.03C724.155 1041.74 724.494 1041.54 724.866 1041.5L749.976 1038.35C750.161 1038.32 750.34 1038.26 750.502 1038.17C750.664 1038.08 750.806 1037.95 750.921 1037.81C751.035 1037.66 751.119 1037.49 751.168 1037.31C751.217 1037.13 751.23 1036.94 751.206 1036.76L749.946 1026.85C749.922 1026.66 749.863 1026.48 749.77 1026.32C749.677 1026.16 749.554 1026.02 749.406 1025.9C749.258 1025.79 749.089 1025.7 748.909 1025.65C748.729 1025.61 748.541 1025.59 748.356 1025.62L723.266 1028.79C723.081 1028.81 722.893 1028.8 722.712 1028.75C722.532 1028.7 722.363 1028.62 722.216 1028.5C722.068 1028.39 721.944 1028.24 721.852 1028.08C721.759 1027.92 721.699 1027.74 721.676 1027.56L720.076 1015.1Z" stroke="#999999" stroke-width="2"/>
<path d="M550.801 1047.9L560.541 1048.99C560.7 1049 560.851 1049.07 560.978 1049.16C561.105 1049.26 561.203 1049.4 561.261 1049.55C563.854 1056.09 566.474 1062.61 569.121 1069.12C570.181 1071.73 570.431 1072.71 573.571 1073.02C576.997 1073.36 580.531 1073.68 584.171 1073.98C584.314 1073.99 584.458 1073.97 584.593 1073.92C584.728 1073.87 584.851 1073.8 584.953 1073.7C585.056 1073.6 585.135 1073.48 585.187 1073.34C585.238 1073.21 585.26 1073.07 585.251 1072.93C585.177 1071.57 584.814 1070.12 584.161 1068.58C581.221 1061.62 578.321 1054.76 575.461 1047.99C575.372 1047.78 575.367 1047.55 575.447 1047.34C575.528 1047.13 575.687 1046.96 575.891 1046.87C591.421 1039.8 593.641 1015.82 579.491 1006.3C573.861 1002.52 567.831 1002 560.761 1001.23C554.934 1000.59 549.051 999.98 543.111 999.407C542.602 999.359 542.095 999.514 541.7 999.838C541.305 1000.16 541.054 1000.63 541.001 1001.14L534.311 1067.46C534.211 1068.46 534.661 1069.02 535.661 1069.13L545.821 1070.23C547.234 1070.38 548.014 1069.75 548.161 1068.34L550.201 1048.38C550.241 1048.02 550.441 1047.86 550.801 1047.9Z" stroke="#999999" stroke-width="2"/>
<path d="M640.283 1020.2C648.883 1016.13 656.443 1017.54 664.203 1022.59C664.388 1022.71 664.595 1022.79 664.812 1022.83C665.03 1022.87 665.253 1022.87 665.469 1022.82C665.686 1022.78 665.891 1022.69 666.074 1022.57C666.256 1022.44 666.412 1022.28 666.533 1022.1L672.023 1013.6C672.243 1013.26 672.319 1012.89 672.253 1012.49C672.066 1011.39 671.499 1010.55 670.553 1009.98C660.146 1003.7 649.643 1002.29 639.043 1005.74C624.703 1010.4 614.843 1022.45 613.873 1037.63C612.423 1060.21 630.023 1077.6 652.493 1076.44C659.739 1076.06 666.616 1073.89 673.123 1069.92C674.116 1069.31 674.609 1068.3 674.603 1066.89C674.563 1059.36 674.423 1051.72 674.183 1043.97C674.143 1042.68 673.483 1042.05 672.203 1042.08L662.773 1042.28C662.533 1042.28 662.296 1042.33 662.076 1042.43C661.856 1042.52 661.657 1042.66 661.491 1042.83C661.325 1043.01 661.194 1043.21 661.107 1043.43C661.019 1043.66 660.977 1043.9 660.983 1044.14L661.273 1058.93C661.276 1059.11 661.23 1059.29 661.14 1059.44C661.051 1059.6 660.92 1059.73 660.763 1059.82C649.603 1066.19 635.483 1061.61 629.923 1050.22C624.473 1039.09 628.943 1025.57 640.283 1020.2Z" stroke="#999999" stroke-width="2"/>
<path d="M768.557 263.498C768.533 263.541 768.518 263.589 768.516 263.638C768.514 263.688 768.523 263.737 768.544 263.782C768.564 263.827 768.595 263.867 768.634 263.897C768.673 263.928 768.719 263.949 768.767 263.958L786.867 267.478C786.916 267.488 786.967 267.486 787.015 267.473C787.063 267.459 787.108 267.434 787.144 267.4C787.18 267.365 787.208 267.323 787.224 267.275C787.24 267.228 787.245 267.177 787.237 267.128L782.997 240.598C782.987 240.536 782.958 240.478 782.913 240.433C782.869 240.388 782.813 240.357 782.751 240.345C782.689 240.334 782.624 240.341 782.567 240.366C782.509 240.392 782.46 240.434 782.427 240.488L768.557 263.498Z" stroke="#999999" stroke-width="2"/>
<path d="M466.737 237.698L470.627 257.358C470.642 257.432 470.671 257.502 470.712 257.564C470.753 257.627 470.807 257.68 470.869 257.722C470.931 257.764 471.001 257.793 471.075 257.808C471.148 257.823 471.224 257.823 471.297 257.808L482.317 255.628C485.09 255.078 487.535 253.475 489.116 251.17C490.697 248.865 491.284 246.048 490.747 243.338L490.677 242.998C490.14 240.288 488.524 237.906 486.184 236.378C483.843 234.849 480.97 234.299 478.197 234.848L467.187 237.028C467.114 237.043 467.044 237.071 466.981 237.113C466.919 237.154 466.865 237.208 466.823 237.27C466.782 237.332 466.752 237.402 466.738 237.475C466.723 237.549 466.723 237.625 466.737 237.698Z" stroke="#999999" stroke-width="2"/>
<path d="M388.883 290.797C388.882 290.85 388.894 290.903 388.918 290.952C388.941 291 388.976 291.042 389.019 291.074C389.062 291.106 389.112 291.127 389.164 291.137C389.217 291.146 389.272 291.142 389.323 291.127L406.693 285.517C406.745 285.5 406.792 285.472 406.831 285.433C406.87 285.395 406.899 285.348 406.916 285.296C406.932 285.244 406.936 285.189 406.927 285.135C406.918 285.081 406.896 285.03 406.863 284.987L390.493 264.017C390.451 263.961 390.392 263.92 390.326 263.899C390.259 263.878 390.188 263.877 390.121 263.898C390.055 263.919 389.996 263.96 389.953 264.015C389.911 264.07 389.886 264.137 389.883 264.207L388.883 290.797Z" stroke="#999999" stroke-width="2"/>
<path d="M521.728 579.806C521.728 572.743 518.922 565.97 513.928 560.976C508.934 555.981 502.161 553.176 495.098 553.176H490.958C483.895 553.176 477.122 555.981 472.128 560.976C467.134 565.97 464.328 572.743 464.328 579.806V703.346C464.328 710.409 467.134 717.182 472.128 722.176C477.122 727.17 483.895 729.976 490.958 729.976H495.098C502.161 729.976 508.934 727.17 513.928 722.176C518.922 717.182 521.728 710.409 521.728 703.346V579.806Z" stroke="#999999" stroke-width="2"/>
<path d="M698.688 677.786C698.677 677.831 698.677 677.878 698.687 677.924C698.697 677.969 698.718 678.012 698.746 678.048C698.775 678.085 698.812 678.114 698.854 678.135C698.895 678.155 698.941 678.166 698.988 678.166H737.388C737.434 678.166 737.48 678.155 737.522 678.135C737.564 678.114 737.6 678.085 737.629 678.048C737.658 678.012 737.678 677.969 737.688 677.924C737.698 677.878 737.698 677.831 737.688 677.786L718.488 586.146C718.47 586.08 718.432 586.021 718.377 585.979C718.323 585.937 718.256 585.914 718.188 585.914C718.119 585.914 718.052 585.937 717.998 585.979C717.944 586.021 717.905 586.08 717.888 586.146L698.688 677.786Z" stroke="#999999" stroke-width="2"/>
<path d="M236.859 556.297L237.099 626.577C237.099 626.638 237.124 626.697 237.167 626.74C237.21 626.783 237.268 626.807 237.329 626.807L268.789 626.697C271.297 626.689 273.779 626.189 276.093 625.225C278.406 624.26 280.507 622.851 282.274 621.077C284.041 619.304 285.441 617.2 286.392 614.887C287.344 612.574 287.829 610.097 287.819 607.597L287.699 574.917C287.681 569.872 285.653 565.04 282.062 561.485C278.471 557.929 273.611 555.941 268.549 555.957L237.089 556.067C237.028 556.067 236.97 556.091 236.927 556.134C236.884 556.178 236.859 556.236 236.859 556.297Z" stroke="#999999" stroke-width="2"/>
<path d="M390.383 975.387L385.593 989.377C385.555 989.495 385.565 989.623 385.621 989.734C385.678 989.844 385.775 989.928 385.893 989.967L397.573 993.967C399.54 994.641 401.683 994.536 403.532 993.675C405.381 992.814 406.784 991.268 407.433 989.377L407.643 988.767C408.289 986.875 408.128 984.793 407.194 982.98C406.26 981.166 404.63 979.769 402.663 979.097L390.983 975.097C390.924 975.076 390.862 975.068 390.801 975.071C390.739 975.075 390.678 975.09 390.623 975.117C390.567 975.144 390.517 975.182 390.476 975.228C390.435 975.274 390.403 975.328 390.383 975.387Z" stroke="#999999" stroke-width="2"/>
<path d="M381.526 1001.1L376.026 1017.06C375.972 1017.21 375.983 1017.39 376.056 1017.54C376.129 1017.69 376.259 1017.8 376.416 1017.86L389.796 1022.47C390.926 1022.86 392.118 1023.03 393.302 1022.98C394.487 1022.94 395.641 1022.66 396.7 1022.19C397.759 1021.71 398.701 1021.03 399.472 1020.2C400.244 1019.36 400.83 1018.38 401.196 1017.32L401.516 1016.39C402.256 1014.24 402.059 1011.86 400.969 1009.79C399.88 1007.71 397.987 1006.1 395.706 1005.32L382.326 1000.71C382.169 1000.65 381.996 1000.66 381.846 1000.74C381.696 1000.81 381.581 1000.94 381.526 1001.1Z" stroke="#999999" stroke-width="2"/>
<path d="M799.357 1001.12L804.117 1020.95C804.14 1021.05 804.205 1021.14 804.297 1021.2C804.389 1021.26 804.5 1021.28 804.607 1021.26L815.587 1018.62C816.954 1018.29 818.246 1017.71 819.389 1016.91C820.533 1016.1 821.505 1015.1 822.251 1013.95C822.997 1012.79 823.501 1011.52 823.736 1010.19C823.97 1008.86 823.929 1007.51 823.617 1006.21L823.417 1005.4C822.785 1002.77 821.085 1000.51 818.688 999.122C816.291 997.733 813.395 997.324 810.637 997.985L799.657 1000.62C799.604 1000.63 799.554 1000.65 799.511 1000.68C799.467 1000.72 799.43 1000.76 799.402 1000.8C799.374 1000.85 799.356 1000.9 799.348 1000.95C799.34 1001.01 799.343 1001.06 799.357 1001.12Z" stroke="#999999" stroke-width="2"/>
<path d="M553.622 1014.14L551.612 1034.36C551.605 1034.42 551.611 1034.48 551.627 1034.54C551.644 1034.59 551.673 1034.65 551.711 1034.7C551.749 1034.74 551.796 1034.78 551.85 1034.81C551.903 1034.84 551.962 1034.86 552.022 1034.87L563.222 1035.99C564.626 1036.13 566.043 1036 567.391 1035.61C568.74 1035.23 569.994 1034.59 571.081 1033.73C572.169 1032.88 573.068 1031.82 573.729 1030.63C574.39 1029.44 574.799 1028.13 574.932 1026.79L575.002 1026.18C575.137 1024.83 574.994 1023.47 574.581 1022.17C574.168 1020.87 573.494 1019.66 572.595 1018.6C571.697 1017.55 570.594 1016.68 569.347 1016.03C568.101 1015.39 566.737 1014.98 565.332 1014.85L554.132 1013.73C554.072 1013.72 554.011 1013.72 553.952 1013.74C553.894 1013.76 553.839 1013.79 553.792 1013.82C553.744 1013.86 553.705 1013.91 553.676 1013.96C553.647 1014.02 553.629 1014.08 553.622 1014.14Z" stroke="#999999" stroke-width="2"/>
<path d="M875.659 97.926C907.699 110.066 940.969 118.486 974.019 127.366C984.959 130.306 999.619 134.996 1018 141.436C1021.47 142.649 1027.67 145.169 1036.61 148.996C1056.97 157.696 1074.75 168.766 1089.95 182.206C1122.96 211.416 1140.71 256.356 1152.61 297.616C1159.3 320.809 1165.78 344.063 1172.06 367.376C1175.32 379.496 1180.16 393.806 1186.59 410.306C1189 416.486 1191.64 422.596 1194.52 428.636C1202.49 445.323 1210.27 460.033 1217.88 472.766C1236.41 503.786 1252.55 531.886 1266.38 563.336C1271.4 574.756 1275.79 588.276 1279.54 603.896C1284.45 624.336 1285.24 645.549 1281.91 667.536C1278.37 690.876 1269.92 714.466 1259.53 735.636C1251.61 751.756 1243.36 767.316 1234.12 783.126C1218.13 810.446 1208.77 826.366 1196.95 850.196C1186.46 871.346 1178.51 893.946 1172.11 916.656C1163.2 948.316 1155.22 980.226 1144.47 1011.35C1135.23 1038.11 1123.32 1063.31 1105.27 1085.29C1074.44 1122.86 1026.81 1141.16 981.479 1153.95C962.686 1159.25 943.869 1164.5 925.029 1169.68C901.596 1176.12 881.423 1182.93 864.509 1190.11C853.349 1194.85 839.319 1202.02 822.419 1211.64C803.166 1222.58 783.893 1233.5 764.599 1244.38C738.889 1258.89 713.169 1271.12 684.999 1278.33C657.329 1285.42 627.989 1285.61 600.269 1278.66C568.179 1270.62 537.509 1255.46 509.359 1239.03C490.366 1227.95 471.246 1217.09 451.999 1206.45C419.419 1188.45 389.349 1177.94 351.619 1167.69C309.749 1156.32 266.439 1145.92 228.079 1125.32C197.299 1108.78 173.789 1085.05 157.549 1054.11C145.499 1031.18 136.629 1005.7 129.699 981.106C124.039 961.013 118.413 940.906 112.819 920.786C107.366 901.179 100.749 881.976 92.9694 863.176C91.5894 859.843 88.1961 852.893 82.7894 842.326C65.5294 808.566 43.4894 775.206 26.0294 740.046C15.8894 719.639 8.35941 698.359 3.43941 676.206C1.97275 669.579 1.01941 662.989 0.579414 656.436C-0.340586 642.696 -0.380581 628.566 2.06942 614.976C6.33609 591.369 14.0861 568.353 25.3194 545.926C32.1528 532.279 36.9461 523.053 39.6994 518.246C50.0594 500.139 60.4028 482.023 70.7294 463.896C85.9294 437.206 97.9394 411.206 106.709 383.096C109.859 373.006 113.029 363.216 115.749 352.736C120.729 333.529 126.999 311.419 134.559 286.406C141.226 264.353 149.843 243.806 160.409 224.766C180.689 188.206 211.699 163.956 249.939 147.906C268.033 140.306 286.549 133.896 305.489 128.676C324.249 123.496 342.969 118.226 361.769 113.206C369.056 111.259 378.396 108.376 389.789 104.556C414.229 96.3461 437.679 85.7261 460.079 72.9661C496.079 52.4661 532.259 29.8061 569.789 14.6761C579.936 10.5827 591.776 7.04272 605.309 4.05606C641.319 -3.91394 675.689 0.216055 709.659 13.3361C731.326 21.6961 752.206 31.7061 772.299 43.3661C803.206 61.2861 823.513 72.9027 833.219 78.2161C846.219 85.3361 861.159 92.436 875.659 97.926ZM632.04 208.07C632.034 207.699 631.88 207.345 631.613 207.087C631.346 206.829 630.987 206.688 630.616 206.695L619.518 206.888C619.334 206.891 619.152 206.931 618.984 207.004C618.815 207.077 618.663 207.183 618.535 207.316C618.407 207.448 618.307 207.604 618.24 207.775C618.172 207.946 618.139 208.129 618.142 208.312L619.319 275.702C619.325 276.073 619.479 276.427 619.746 276.685C620.013 276.943 620.372 277.084 620.743 277.078L631.841 276.884C632.025 276.881 632.206 276.841 632.375 276.768C632.544 276.695 632.696 276.589 632.824 276.457C632.952 276.324 633.052 276.168 633.119 275.997C633.187 275.826 633.22 275.643 633.216 275.46L632.04 208.07ZM551.539 224.286C551.733 224.268 551.929 224.289 552.114 224.346C552.3 224.404 552.473 224.498 552.622 224.622C552.772 224.747 552.895 224.899 552.986 225.072C553.076 225.244 553.132 225.432 553.149 225.626L558.039 279.606C558.075 279.995 558.263 280.355 558.563 280.606C558.863 280.857 559.25 280.979 559.639 280.946L570.589 279.956C570.784 279.94 570.974 279.885 571.147 279.795C571.32 279.705 571.474 279.582 571.6 279.432C571.725 279.282 571.82 279.109 571.878 278.923C571.936 278.737 571.957 278.541 571.939 278.346L566.999 224.266C566.982 224.072 567.002 223.875 567.061 223.689C567.119 223.503 567.214 223.33 567.339 223.18C567.465 223.03 567.619 222.907 567.792 222.817C567.965 222.727 568.155 222.672 568.349 222.656L583.589 221.376C583.783 221.36 583.972 221.305 584.144 221.216C584.317 221.127 584.471 221.004 584.596 220.856C584.721 220.707 584.816 220.535 584.875 220.35C584.934 220.165 584.956 219.97 584.939 219.776L584.049 209.246C584.033 209.051 583.978 208.862 583.888 208.689C583.799 208.515 583.675 208.361 583.526 208.236C583.376 208.11 583.203 208.016 583.016 207.957C582.83 207.899 582.634 207.878 582.439 207.896L534.999 212.136C534.806 212.152 534.617 212.207 534.444 212.296C534.272 212.385 534.118 212.508 533.993 212.656C533.868 212.805 533.773 212.977 533.714 213.162C533.655 213.347 533.633 213.542 533.649 213.736L534.549 224.336C534.566 224.53 534.62 224.718 534.709 224.891C534.799 225.064 534.921 225.217 535.07 225.343C535.218 225.468 535.39 225.563 535.575 225.622C535.761 225.681 535.956 225.703 536.149 225.686L551.539 224.286ZM674.699 220.336C671.473 227.363 672.156 233.639 676.749 239.166C682.729 246.366 695.149 249.236 701.509 252.426C711.739 257.556 707.429 265.996 697.759 266.426C689.866 266.773 682.669 264.536 676.169 259.716C674.896 258.769 673.689 258.909 672.549 260.136C670.149 262.723 668.056 265.383 666.269 268.116C666.119 268.347 666.059 268.624 666.099 268.896C666.14 269.167 666.279 269.413 666.489 269.586C671.683 273.879 677.609 276.969 684.269 278.856C698.179 282.786 718.849 279.356 721.139 262.066C722.119 254.656 719.009 247.756 712.699 243.926C706.786 240.333 699.646 237.086 691.279 234.186C688.029 233.066 685.129 228.306 688.269 225.196C692.839 220.676 702.649 222.516 707.979 225.276C709.986 226.316 711.886 227.319 713.679 228.286C713.929 228.423 714.218 228.472 714.499 228.425C714.781 228.377 715.038 228.237 715.229 228.026C717.356 225.693 719.449 223.223 721.509 220.616C722.599 219.236 722.789 218.156 721.339 216.896C709.719 206.706 682.239 203.896 674.699 220.336ZM788.109 279.856C788.429 279.918 788.721 280.077 788.947 280.312C789.172 280.546 789.32 280.845 789.369 281.166L791.219 293.206C791.271 293.526 791.419 293.822 791.645 294.054C791.87 294.287 792.162 294.445 792.479 294.506L803.909 296.776C804.164 296.827 804.426 296.814 804.675 296.739C804.923 296.664 805.149 296.53 805.332 296.347C805.516 296.164 805.652 295.939 805.728 295.691C805.805 295.443 805.819 295.181 805.769 294.926L792.349 223.846C792.291 223.534 792.139 223.246 791.914 223.021C791.689 222.797 791.402 222.645 791.089 222.586L781.729 220.856C781.422 220.8 781.105 220.837 780.818 220.962C780.532 221.086 780.288 221.293 780.119 221.556L740.859 282.166C740.719 282.383 740.634 282.631 740.611 282.888C740.588 283.145 740.629 283.404 740.73 283.642C740.831 283.88 740.988 284.089 741.188 284.252C741.389 284.415 741.626 284.526 741.879 284.576L753.359 286.776C753.679 286.839 754.009 286.801 754.306 286.669C754.604 286.536 754.853 286.315 755.019 286.036L761.219 275.676C761.386 275.397 761.635 275.176 761.932 275.043C762.229 274.911 762.56 274.874 762.879 274.936L788.109 279.856ZM497.509 262.706C502.416 257.759 504.869 252.109 504.869 245.756C504.859 233.536 496.779 222.676 484.039 221.536C481.006 221.263 475.679 221.903 468.059 223.456C462.779 224.529 457.516 225.603 452.269 226.676C451.056 226.923 450.569 227.653 450.809 228.866L463.779 293.886C464.026 295.133 464.773 295.633 466.019 295.386L475.739 293.496C476.254 293.397 476.708 293.097 477.002 292.663C477.296 292.228 477.407 291.693 477.309 291.176L473.479 271.446C473.393 271.033 473.559 270.786 473.979 270.706L483.459 268.826C483.601 268.799 483.747 268.811 483.883 268.86C484.019 268.909 484.138 268.994 484.229 269.106L498.949 287.366C499.669 288.259 500.589 288.589 501.709 288.356L513.239 285.976C513.478 285.927 513.7 285.817 513.884 285.658C514.068 285.498 514.207 285.294 514.289 285.066C514.371 284.837 514.391 284.592 514.349 284.354C514.307 284.115 514.204 283.892 514.049 283.706L497.479 263.406C497.279 263.166 497.289 262.933 497.509 262.706ZM882.689 295.516C882.668 295.583 882.627 295.642 882.57 295.684C882.513 295.725 882.445 295.748 882.374 295.748C882.304 295.748 882.236 295.725 882.179 295.684C882.122 295.642 882.08 295.583 882.059 295.516L865.589 241.416C865.575 241.365 865.548 241.319 865.511 241.28C865.475 241.242 865.429 241.213 865.379 241.196L852.259 236.986C852.177 236.961 852.088 236.968 852.012 237.008C851.935 237.047 851.877 237.115 851.849 237.196L830.139 303.336C830.126 303.378 830.12 303.422 830.124 303.466C830.127 303.511 830.14 303.553 830.16 303.593C830.181 303.632 830.209 303.666 830.243 303.695C830.278 303.723 830.317 303.744 830.359 303.756L842.909 307.766C842.992 307.791 843.081 307.784 843.157 307.744C843.234 307.705 843.292 307.638 843.319 307.556L858.159 262.306C858.181 262.239 858.224 262.181 858.282 262.14C858.339 262.1 858.408 262.078 858.478 262.079C858.548 262.08 858.617 262.104 858.673 262.147C858.729 262.189 858.77 262.249 858.789 262.316L875.329 318.286C875.344 318.337 875.371 318.383 875.408 318.422C875.444 318.46 875.489 318.489 875.539 318.506L888.019 322.606C888.102 322.631 888.19 322.624 888.267 322.584C888.344 322.545 888.402 322.478 888.429 322.396L910.109 256.296C910.135 256.214 910.127 256.125 910.088 256.048C910.049 255.972 909.981 255.914 909.899 255.886L897.329 251.696C897.287 251.682 897.243 251.677 897.199 251.681C897.155 251.684 897.112 251.697 897.073 251.717C897.034 251.738 896.999 251.766 896.971 251.8C896.943 251.834 896.922 251.874 896.909 251.916L882.689 295.516ZM413.829 295.636C414.148 295.533 414.491 295.53 414.811 295.628C415.132 295.727 415.414 295.921 415.619 296.186L423.139 305.856C423.346 306.123 423.63 306.319 423.952 306.417C424.274 306.516 424.619 306.512 424.939 306.406L435.859 302.766C436.111 302.681 436.337 302.537 436.52 302.345C436.703 302.153 436.836 301.919 436.908 301.664C436.98 301.408 436.988 301.14 436.933 300.88C436.877 300.621 436.759 300.379 436.589 300.176L390.399 244.676C390.19 244.426 389.91 244.245 389.596 244.156C389.282 244.067 388.949 244.074 388.639 244.176L379.679 247.116C379.37 247.217 379.099 247.408 378.899 247.665C378.7 247.921 378.581 248.232 378.559 248.556L373.779 320.536C373.761 320.802 373.809 321.068 373.918 321.311C374.027 321.555 374.193 321.768 374.404 321.931C374.614 322.095 374.861 322.205 375.124 322.251C375.386 322.297 375.656 322.278 375.909 322.196L386.809 318.666C387.126 318.562 387.403 318.363 387.603 318.097C387.804 317.831 387.917 317.509 387.929 317.176L388.389 305.056C388.401 304.723 388.515 304.402 388.715 304.135C388.916 303.869 389.193 303.67 389.509 303.566L413.829 295.636ZM708.029 386.996C708.029 386.853 707.973 386.715 707.871 386.614C707.77 386.513 707.633 386.456 707.489 386.456H576.009C575.866 386.456 575.729 386.513 575.628 386.614C575.526 386.715 575.469 386.853 575.469 386.996V399.976C575.469 400.119 575.526 400.257 575.628 400.358C575.729 400.459 575.866 400.516 576.009 400.516H707.489C707.633 400.516 707.77 400.459 707.871 400.358C707.973 400.257 708.029 400.119 708.029 399.976V386.996ZM487.779 506.526C441.929 507.896 408.059 537.726 408.019 585.136C407.986 618.476 407.979 651.813 407.999 685.146C408.006 696.393 408.086 703.056 408.239 705.136C411.429 748.256 442.949 774.046 484.829 776.726C536.239 780.026 577.609 752.626 577.599 696.886C577.593 659.806 577.623 622.723 577.689 585.636C577.716 572.876 575.583 561.533 571.289 551.606C556.739 517.976 522.999 505.476 487.779 506.526ZM746.089 720.076C747.636 727.216 749.186 734.346 750.739 741.466C753.869 755.886 756.669 765.756 770.349 770.406C773.249 771.393 777.406 771.909 782.819 771.956C792.139 772.036 801.466 772.023 810.799 771.916C811.239 771.909 811.456 771.686 811.449 771.246L811.369 756.206C811.369 756.014 811.29 755.827 811.149 755.686C803.119 747.786 802.009 741.076 799.009 728.266C782.209 656.486 765.386 584.703 748.539 512.916C748.473 512.623 748.289 512.476 747.989 512.476L688.539 512.596C688.186 512.596 687.966 512.769 687.879 513.116C670.226 588.369 652.596 663.629 634.989 738.896C633.489 745.336 630.319 750.823 625.479 755.356C625.199 755.616 625.059 755.936 625.059 756.316L625.019 771.176C625.019 771.609 625.236 771.829 625.669 771.836C642.729 772.136 653.926 772.143 659.259 771.856C674.569 771.046 681.889 759.606 684.869 745.876C686.756 737.203 688.566 728.523 690.299 719.836C690.322 719.726 690.381 719.627 690.467 719.556C690.553 719.485 690.659 719.446 690.769 719.446H745.309C745.736 719.446 745.996 719.656 746.089 720.076ZM928.699 624.406C928.7 624.356 928.717 624.308 928.749 624.269C928.78 624.23 928.824 624.203 928.873 624.193C928.922 624.182 928.973 624.189 929.018 624.211C929.063 624.234 929.099 624.271 929.119 624.316L971.969 719.036C972.096 719.309 972.306 719.446 972.599 719.446H1002.5C1002.7 719.447 1002.89 719.389 1003.06 719.281C1003.23 719.173 1003.37 719.019 1003.45 718.836L1046.22 624.306C1046.24 624.269 1046.27 624.238 1046.31 624.22C1046.34 624.201 1046.39 624.195 1046.43 624.203C1046.47 624.211 1046.5 624.233 1046.53 624.264C1046.56 624.295 1046.58 624.334 1046.58 624.376L1046.6 769.766C1046.6 770.306 1046.87 770.576 1047.4 770.576L1101.49 770.606C1101.67 770.606 1101.85 770.533 1101.98 770.404C1102.11 770.275 1102.18 770.099 1102.18 769.916L1102.17 513.186C1102.17 512.779 1101.97 512.576 1101.57 512.576L1047.3 512.526C1047.1 512.526 1046.9 512.584 1046.73 512.694C1046.56 512.804 1046.42 512.961 1046.34 513.146L988.009 642.126C987.979 642.192 987.93 642.248 987.869 642.287C987.808 642.326 987.737 642.347 987.664 642.347C987.592 642.347 987.521 642.326 987.46 642.287C987.398 642.248 987.35 642.192 987.319 642.126L928.819 512.756C928.789 512.69 928.741 512.634 928.68 512.595C928.62 512.556 928.55 512.536 928.479 512.536L873.789 512.586C873.636 512.586 873.488 512.647 873.379 512.756C873.271 512.865 873.209 513.012 873.209 513.166C873.249 584.993 873.246 656.816 873.199 728.636C873.186 739.663 869.659 748.693 862.619 755.726C862.414 755.937 862.3 756.22 862.299 756.516L862.259 771.336C862.259 771.656 862.419 771.819 862.739 771.826C882.413 772.146 895.009 772.156 900.529 771.856C924.389 770.546 928.609 749.866 928.679 730.386C928.819 694.999 928.826 659.673 928.699 624.406ZM309.169 644.346C337.189 635.166 342.049 617.836 341.559 590.496C341.419 582.726 341.869 569.306 340.029 559.626C334.309 529.576 307.709 512.736 278.269 512.626C246.196 512.506 214.119 512.506 182.039 512.626C181.84 512.629 181.649 512.71 181.508 512.852C181.368 512.994 181.289 513.186 181.289 513.386V769.876C181.289 770.064 181.365 770.245 181.5 770.378C181.635 770.511 181.818 770.586 182.009 770.586L236.269 770.596C236.458 770.596 236.638 770.521 236.771 770.388C236.905 770.255 236.979 770.074 236.979 769.886V665.886C236.979 665.506 237.169 665.313 237.549 665.306C246.779 665.096 255.999 665.286 265.219 665.206C280.209 665.066 289.229 674.516 289.249 689.636C289.263 703.223 289.239 716.803 289.179 730.376C289.079 751.916 294.929 771.496 320.279 771.886C331.119 772.053 341.976 772.056 352.849 771.896C353.243 771.896 353.439 771.696 353.439 771.296V756.596C353.439 756.276 353.336 755.989 353.129 755.736C351.309 753.526 349.139 751.266 347.749 749.066C344.383 743.733 342.689 738.173 342.669 732.386C342.623 719.453 342.596 706.516 342.589 693.576C342.589 686.476 342.136 681.049 341.229 677.296C337.263 660.836 326.579 649.999 309.179 644.786C309.132 644.773 309.09 644.745 309.06 644.706C309.029 644.667 309.012 644.619 309.011 644.57C309.01 644.52 309.025 644.472 309.053 644.432C309.082 644.392 309.123 644.361 309.169 644.346ZM708.029 883.646C708.029 883.447 707.95 883.256 707.81 883.116C707.669 882.975 707.478 882.896 707.279 882.896H576.159C575.961 882.896 575.77 882.975 575.629 883.116C575.488 883.256 575.409 883.447 575.409 883.646V896.126C575.409 896.325 575.488 896.516 575.629 896.656C575.77 896.797 575.961 896.876 576.159 896.876H707.279C707.478 896.876 707.669 896.797 707.81 896.656C707.95 896.516 708.029 896.325 708.029 896.126V883.646ZM410.459 1003.19C416.253 1001.02 419.943 996.926 421.529 990.906C424.579 979.336 417.349 971.046 407.019 967.386C398.739 964.459 390.666 961.689 382.799 959.076C381.919 958.783 381.329 959.073 381.029 959.946L359.019 1023.89C358.927 1024.16 358.944 1024.45 359.067 1024.71C359.191 1024.96 359.411 1025.16 359.679 1025.26C366.279 1027.62 372.949 1029.93 379.689 1032.19C387.569 1034.83 393.229 1036.09 396.669 1035.99C412.429 1035.5 421.449 1015.56 410.339 1003.74C410.301 1003.7 410.273 1003.65 410.258 1003.59C410.243 1003.54 410.242 1003.48 410.254 1003.43C410.265 1003.37 410.29 1003.32 410.326 1003.28C410.362 1003.24 410.408 1003.21 410.459 1003.19ZM884.779 988.486C879.809 988.606 875.279 984.716 879.179 980.016C884.529 973.586 894.089 973.026 902.139 974.156C902.591 974.221 903.05 974.121 903.434 973.875C903.817 973.629 904.1 973.253 904.229 972.816C905.196 969.576 906.009 966.339 906.669 963.106C906.983 961.586 906.479 960.689 905.159 960.416C892.329 957.796 872.569 961.666 865.889 974.346C862.429 980.906 863.259 989.696 868.159 995.296C872.439 1000.2 879.379 1001.66 885.769 1001.43C891.516 1001.23 897.266 1001.13 903.019 1001.14C909.509 1001.16 912.909 1007.91 907.829 1012.5C900.669 1018.97 889.679 1020.03 880.449 1018.05C880.072 1017.96 879.679 1018.02 879.344 1018.21C879.01 1018.4 878.759 1018.71 878.639 1019.08C877.526 1022.41 876.663 1025.77 876.049 1029.16C875.816 1030.44 876.473 1031.24 878.019 1031.56C886.826 1033.34 894.883 1033.17 902.189 1031.05C915.359 1027.21 927.479 1016.34 923.399 1001.66C918.689 984.686 897.869 988.176 884.779 988.486ZM489.819 1032.4C485.239 1054.09 455.659 1047.09 459.849 1027.37C462.703 1013.89 465.633 1000.38 468.639 986.846C468.681 986.661 468.685 986.469 468.652 986.283C468.619 986.096 468.549 985.917 468.447 985.757C468.345 985.598 468.212 985.459 468.056 985.351C467.9 985.243 467.725 985.166 467.539 985.126L456.809 982.746C455.823 982.526 455.219 982.909 454.999 983.896C452.639 994.476 450.306 1005.25 447.999 1016.23C446.359 1024.05 445.506 1028.85 445.439 1030.63C445.079 1040.61 449.369 1049.33 458.049 1054.62C471.819 1063.01 490.939 1060.69 498.959 1046.82C500.819 1043.6 502.726 1037.62 504.679 1028.9C507.106 1018.03 509.453 1007.19 511.719 996.376C511.805 995.973 511.727 995.553 511.502 995.206C511.277 994.86 510.924 994.615 510.519 994.526L500.269 992.286C499.096 992.026 498.383 992.483 498.129 993.656C495.389 1006.23 492.619 1019.14 489.819 1032.4ZM807.869 1033.93L817.229 1031.82C817.411 1031.78 817.6 1031.79 817.776 1031.84C817.952 1031.9 818.108 1032.01 818.229 1032.15L834.129 1050.45C834.25 1050.59 834.407 1050.69 834.583 1050.75C834.759 1050.81 834.948 1050.82 835.129 1050.78L847.389 1047.94C847.665 1047.87 847.921 1047.74 848.129 1047.55C848.338 1047.36 848.494 1047.12 848.58 1046.85C848.667 1046.58 848.682 1046.29 848.624 1046.01C848.566 1045.74 848.437 1045.48 848.249 1045.27L831.059 1025.77C830.793 1025.47 830.803 1025.17 831.089 1024.89C835.829 1020.24 838.113 1014.91 837.939 1008.89C837.489 992.746 825.189 981.616 808.789 985.116C800.469 986.889 792.283 988.789 784.229 990.816C783.832 990.918 783.489 991.171 783.276 991.521C783.063 991.87 782.996 992.289 783.089 992.686L798.679 1058C798.767 1058.36 798.995 1058.68 799.313 1058.87C799.631 1059.07 800.014 1059.14 800.379 1059.06L810.709 1056.74C810.954 1056.68 811.185 1056.58 811.389 1056.43C811.594 1056.29 811.767 1056.1 811.899 1055.89C812.031 1055.68 812.12 1055.44 812.159 1055.19C812.199 1054.94 812.189 1054.69 812.129 1054.45L807.359 1034.74C807.339 1034.65 807.336 1034.56 807.35 1034.47C807.365 1034.38 807.397 1034.3 807.444 1034.22C807.492 1034.15 807.554 1034.08 807.627 1034.03C807.7 1033.98 807.782 1033.95 807.869 1033.93ZM720.079 1015.1C720.056 1014.91 720.069 1014.72 720.118 1014.54C720.168 1014.36 720.253 1014.19 720.368 1014.04C720.484 1013.89 720.627 1013.77 720.79 1013.68C720.953 1013.59 721.133 1013.53 721.319 1013.51L753.469 1009.55C753.84 1009.5 754.176 1009.31 754.406 1009.01C754.637 1008.72 754.742 1008.35 754.699 1007.98L753.579 997.956C753.558 997.769 753.5 997.588 753.409 997.424C753.317 997.259 753.194 997.115 753.046 996.998C752.898 996.882 752.728 996.796 752.547 996.746C752.366 996.696 752.176 996.682 751.989 996.706L705.989 1002.47C705.803 1002.49 705.623 1002.55 705.46 1002.64C705.297 1002.73 705.153 1002.85 705.038 1003C704.923 1003.15 704.838 1003.32 704.789 1003.5C704.739 1003.68 704.726 1003.87 704.749 1004.06L713.039 1070.82C713.063 1071 713.123 1071.18 713.215 1071.34C713.308 1071.5 713.432 1071.65 713.579 1071.76C713.727 1071.88 713.896 1071.96 714.076 1072.01C714.256 1072.06 714.444 1072.07 714.629 1072.05L761.439 1066.2C761.806 1066.15 762.139 1065.96 762.369 1065.67C762.598 1065.38 762.706 1065.01 762.669 1064.65L761.679 1054.71C761.661 1054.52 761.605 1054.34 761.515 1054.17C761.425 1054 761.303 1053.86 761.156 1053.74C761.009 1053.62 760.84 1053.53 760.658 1053.48C760.477 1053.43 760.287 1053.41 760.099 1053.44L726.789 1057.54C726.603 1057.56 726.413 1057.55 726.232 1057.5C726.05 1057.45 725.881 1057.36 725.733 1057.24C725.585 1057.13 725.462 1056.98 725.37 1056.82C725.278 1056.65 725.22 1056.47 725.199 1056.29L723.639 1043.08C723.594 1042.7 723.698 1042.33 723.929 1042.03C724.159 1041.74 724.497 1041.54 724.869 1041.5L749.979 1038.35C750.165 1038.32 750.343 1038.26 750.506 1038.17C750.668 1038.08 750.81 1037.95 750.924 1037.81C751.038 1037.66 751.122 1037.49 751.171 1037.31C751.22 1037.13 751.233 1036.94 751.209 1036.76L749.949 1026.85C749.926 1026.66 749.866 1026.48 749.774 1026.32C749.681 1026.16 749.557 1026.02 749.41 1025.9C749.262 1025.79 749.093 1025.7 748.913 1025.65C748.733 1025.61 748.545 1025.59 748.359 1025.62L723.269 1028.79C723.084 1028.81 722.896 1028.8 722.716 1028.75C722.536 1028.7 722.367 1028.62 722.219 1028.5C722.072 1028.39 721.948 1028.24 721.855 1028.08C721.763 1027.92 721.703 1027.74 721.679 1027.56L720.079 1015.1ZM550.799 1047.9L560.539 1048.99C560.699 1049 560.85 1049.07 560.977 1049.16C561.104 1049.26 561.202 1049.4 561.259 1049.55C563.853 1056.09 566.473 1062.61 569.119 1069.12C570.179 1071.73 570.429 1072.71 573.569 1073.02C576.996 1073.36 580.529 1073.68 584.169 1073.98C584.313 1073.99 584.457 1073.97 584.592 1073.92C584.727 1073.87 584.85 1073.8 584.952 1073.7C585.055 1073.6 585.134 1073.48 585.186 1073.34C585.237 1073.21 585.259 1073.07 585.249 1072.93C585.176 1071.57 584.813 1070.12 584.159 1068.58C581.219 1061.62 578.319 1054.76 575.459 1047.99C575.37 1047.78 575.366 1047.54 575.446 1047.34C575.526 1047.13 575.686 1046.96 575.889 1046.87C591.419 1039.8 593.639 1015.82 579.489 1006.3C573.859 1002.52 567.829 1002 560.759 1001.23C554.933 1000.59 549.049 999.979 543.109 999.406C542.601 999.359 542.094 999.514 541.699 999.837C541.304 1000.16 541.052 1000.63 540.999 1001.14L534.309 1067.46C534.209 1068.46 534.659 1069.02 535.659 1069.13L545.819 1070.23C547.233 1070.38 548.013 1069.75 548.159 1068.34L550.199 1048.38C550.239 1048.02 550.439 1047.86 550.799 1047.9ZM640.279 1020.2C648.879 1016.13 656.439 1017.54 664.199 1022.59C664.384 1022.71 664.592 1022.79 664.809 1022.83C665.026 1022.87 665.25 1022.87 665.466 1022.83C665.683 1022.78 665.888 1022.69 666.07 1022.57C666.253 1022.44 666.409 1022.28 666.529 1022.1L672.019 1013.6C672.239 1013.26 672.316 1012.89 672.249 1012.49C672.063 1011.39 671.496 1010.55 670.549 1009.98C660.143 1003.7 649.639 1002.29 639.039 1005.74C624.699 1010.4 614.839 1022.45 613.869 1037.63C612.419 1060.21 630.019 1077.6 652.489 1076.44C659.736 1076.06 666.613 1073.89 673.119 1069.92C674.113 1069.31 674.606 1068.3 674.599 1066.89C674.559 1059.36 674.419 1051.72 674.179 1043.97C674.139 1042.68 673.479 1042.05 672.199 1042.08L662.769 1042.28C662.53 1042.28 662.293 1042.33 662.073 1042.43C661.853 1042.52 661.654 1042.66 661.488 1042.83C661.321 1043.01 661.191 1043.21 661.103 1043.43C661.016 1043.66 660.974 1043.9 660.979 1044.14L661.269 1058.93C661.273 1059.11 661.227 1059.29 661.137 1059.44C661.047 1059.6 660.917 1059.73 660.759 1059.82C649.599 1066.19 635.479 1061.61 629.919 1050.22C624.469 1039.09 628.939 1025.57 640.279 1020.2Z" fill="#999999"/>
<path d="M630.615 206.696L619.517 206.89C618.744 206.903 618.128 207.541 618.142 208.314L619.318 275.704C619.331 276.477 619.969 277.092 620.742 277.079L631.84 276.885C632.614 276.872 633.229 276.234 633.216 275.461L632.04 208.071C632.026 207.298 631.388 206.682 630.615 206.696Z" fill="#FEFEFE"/>
<path d="M551.536 224.287L536.146 225.687C535.952 225.703 535.757 225.681 535.572 225.622C535.387 225.563 535.215 225.469 535.066 225.343C534.918 225.218 534.795 225.065 534.706 224.892C534.617 224.719 534.562 224.531 534.546 224.337L533.646 213.737C533.629 213.543 533.651 213.348 533.71 213.163C533.769 212.978 533.864 212.806 533.989 212.657C534.115 212.509 534.268 212.386 534.441 212.297C534.614 212.208 534.802 212.153 534.996 212.137L582.436 207.897C582.63 207.879 582.827 207.9 583.013 207.958C583.199 208.016 583.372 208.111 583.522 208.237C583.672 208.362 583.795 208.516 583.885 208.689C583.975 208.863 584.03 209.052 584.046 209.247L584.936 219.777C584.952 219.971 584.931 220.166 584.872 220.351C584.813 220.536 584.718 220.708 584.592 220.856C584.467 221.005 584.314 221.127 584.141 221.217C583.968 221.306 583.78 221.36 583.586 221.377L568.346 222.657C568.151 222.673 567.962 222.728 567.788 222.818C567.615 222.908 567.461 223.031 567.336 223.181C567.21 223.33 567.116 223.503 567.057 223.69C566.999 223.876 566.978 224.072 566.996 224.267L571.936 278.347C571.954 278.541 571.933 278.737 571.875 278.924C571.816 279.11 571.722 279.283 571.596 279.433C571.471 279.583 571.317 279.706 571.143 279.796C570.97 279.886 570.781 279.94 570.586 279.957L559.636 280.947C559.246 280.98 558.859 280.858 558.56 280.607C558.26 280.356 558.072 279.996 558.036 279.607L553.146 225.627C553.128 225.433 553.073 225.245 552.982 225.072C552.892 224.9 552.768 224.747 552.619 224.623C552.469 224.499 552.297 224.405 552.111 224.347C551.925 224.289 551.73 224.269 551.536 224.287Z" fill="#FEFEFE"/>
<path d="M674.699 220.337C682.239 203.897 709.719 206.707 721.339 216.897C722.789 218.157 722.599 219.237 721.509 220.617C719.449 223.223 717.355 225.693 715.229 228.027C715.037 228.238 714.78 228.378 714.499 228.425C714.217 228.472 713.929 228.423 713.678 228.287C711.885 227.32 709.985 226.317 707.979 225.277C702.649 222.517 692.839 220.677 688.269 225.197C685.129 228.307 688.029 233.067 691.279 234.187C699.645 237.087 706.785 240.333 712.699 243.927C719.009 247.757 722.119 254.657 721.139 262.067C718.849 279.357 698.179 282.787 684.269 278.857C677.609 276.97 671.682 273.88 666.488 269.587C666.278 269.413 666.139 269.167 666.098 268.896C666.058 268.625 666.118 268.347 666.269 268.117C668.055 265.383 670.149 262.723 672.549 260.137C673.689 258.91 674.895 258.77 676.169 259.717C682.669 264.537 689.865 266.773 697.759 266.427C707.429 265.997 711.739 257.557 701.509 252.427C695.149 249.237 682.729 246.367 676.749 239.167C672.155 233.64 671.472 227.363 674.699 220.337Z" fill="#FEFEFE"/>
<path d="M788.106 279.857L762.876 274.937C762.557 274.875 762.226 274.912 761.929 275.045C761.632 275.177 761.383 275.398 761.216 275.677L755.016 286.037C754.849 286.316 754.6 286.537 754.303 286.67C754.006 286.802 753.675 286.84 753.356 286.777L741.876 284.577C741.623 284.527 741.385 284.416 741.185 284.253C740.985 284.09 740.827 283.881 740.727 283.643C740.626 283.405 740.585 283.146 740.608 282.889C740.63 282.632 740.715 282.384 740.856 282.167L780.116 221.557C780.285 221.294 780.528 221.088 780.815 220.963C781.101 220.838 781.419 220.802 781.726 220.857L791.086 222.587C791.398 222.646 791.686 222.798 791.911 223.023C792.135 223.247 792.287 223.535 792.346 223.847L805.766 294.927C805.815 295.182 805.801 295.444 805.725 295.692C805.649 295.94 805.513 296.165 805.329 296.348C805.145 296.531 804.919 296.666 804.671 296.74C804.423 296.815 804.16 296.828 803.906 296.777L792.476 294.507C792.158 294.446 791.867 294.288 791.641 294.056C791.416 293.823 791.268 293.527 791.216 293.207L789.366 281.167C789.316 280.846 789.169 280.547 788.943 280.313C788.718 280.078 788.425 279.919 788.106 279.857ZM768.556 263.497C768.531 263.54 768.517 263.588 768.515 263.638C768.512 263.687 768.522 263.736 768.542 263.782C768.563 263.827 768.594 263.866 768.633 263.897C768.672 263.927 768.717 263.948 768.766 263.957L786.866 267.477C786.915 267.488 786.966 267.486 787.014 267.472C787.062 267.459 787.106 267.433 787.143 267.399C787.179 267.365 787.206 267.322 787.223 267.275C787.239 267.227 787.243 267.177 787.236 267.127L782.996 240.597C782.985 240.535 782.956 240.478 782.912 240.432C782.868 240.387 782.811 240.357 782.749 240.345C782.687 240.333 782.623 240.34 782.565 240.365C782.508 240.391 782.459 240.433 782.426 240.487L768.556 263.497Z" fill="#FEFEFE"/>
<path d="M497.479 263.408L514.049 283.708C514.204 283.894 514.307 284.117 514.349 284.355C514.391 284.594 514.371 284.839 514.289 285.068C514.207 285.296 514.068 285.5 513.884 285.66C513.7 285.819 513.478 285.929 513.239 285.978L501.709 288.358C500.589 288.591 499.669 288.261 498.949 287.368L484.229 269.108C484.138 268.996 484.019 268.911 483.883 268.862C483.748 268.813 483.601 268.801 483.459 268.828L473.979 270.708C473.559 270.788 473.393 271.035 473.479 271.448L477.309 291.178C477.407 291.695 477.296 292.23 477.002 292.665C476.708 293.099 476.254 293.399 475.739 293.498L466.019 295.388C464.773 295.635 464.026 295.135 463.779 293.888L450.809 228.868C450.569 227.655 451.056 226.925 452.269 226.678C457.516 225.605 462.779 224.531 468.059 223.458C475.679 221.905 481.006 221.265 484.039 221.538C496.779 222.678 504.859 233.538 504.869 245.758C504.869 252.111 502.416 257.761 497.509 262.708C497.289 262.935 497.279 263.168 497.479 263.408ZM466.739 237.698L470.629 257.358C470.644 257.432 470.673 257.502 470.714 257.564C470.756 257.626 470.809 257.68 470.871 257.722C470.933 257.764 471.003 257.793 471.077 257.808C471.15 257.822 471.226 257.822 471.299 257.808L482.319 255.628C485.092 255.078 487.537 253.475 489.118 251.17C490.699 248.865 491.286 246.048 490.749 243.338L490.679 242.998C490.142 240.287 488.526 237.906 486.186 236.378C483.845 234.849 480.973 234.299 478.199 234.848L467.189 237.028C467.116 237.042 467.046 237.071 466.983 237.112C466.921 237.154 466.867 237.207 466.825 237.27C466.784 237.332 466.755 237.402 466.74 237.475C466.725 237.549 466.725 237.624 466.739 237.698Z" fill="#FEFEFE"/>
<path d="M466.737 237.698C466.723 237.625 466.723 237.549 466.738 237.475C466.752 237.402 466.782 237.332 466.823 237.27C466.865 237.208 466.919 237.154 466.981 237.113C467.044 237.071 467.114 237.043 467.187 237.028L478.197 234.848C480.97 234.299 483.843 234.849 486.184 236.378C488.524 237.906 490.14 240.288 490.677 242.998L490.747 243.338C491.284 246.048 490.697 248.865 489.116 251.17C487.535 253.475 485.09 255.078 482.317 255.628L471.297 257.808C471.224 257.823 471.148 257.823 471.075 257.808C471.001 257.793 470.931 257.764 470.869 257.722C470.807 257.68 470.753 257.627 470.712 257.564C470.671 257.502 470.642 257.432 470.627 257.358L466.737 237.698Z" fill="#999999"/>
<path d="M882.684 295.517L896.904 251.917C896.916 251.875 896.937 251.835 896.965 251.801C896.993 251.767 897.028 251.739 897.067 251.718C897.106 251.698 897.149 251.685 897.193 251.682C897.238 251.678 897.282 251.683 897.324 251.697L909.894 255.887C909.975 255.915 910.043 255.973 910.082 256.05C910.121 256.126 910.129 256.215 910.104 256.297L888.424 322.397C888.396 322.479 888.338 322.546 888.262 322.586C888.185 322.625 888.096 322.633 888.014 322.607L875.534 318.507C875.484 318.49 875.439 318.461 875.402 318.423C875.365 318.385 875.339 318.338 875.324 318.287L858.784 262.317C858.764 262.25 858.723 262.19 858.667 262.148C858.611 262.105 858.543 262.082 858.473 262.081C858.402 262.079 858.333 262.101 858.276 262.142C858.219 262.182 858.176 262.24 858.154 262.307L843.314 307.557C843.286 307.639 843.228 307.706 843.152 307.746C843.075 307.785 842.986 307.793 842.904 307.767L830.354 303.757C830.311 303.745 830.272 303.724 830.238 303.696C830.204 303.668 830.175 303.633 830.155 303.594C830.134 303.555 830.122 303.512 830.118 303.468C830.115 303.424 830.12 303.379 830.134 303.337L851.844 237.197C851.871 237.116 851.93 237.048 852.006 237.009C852.083 236.97 852.172 236.962 852.254 236.987L865.374 241.197C865.424 241.214 865.469 241.243 865.506 241.282C865.542 241.32 865.569 241.366 865.584 241.417L882.054 295.517C882.075 295.584 882.117 295.643 882.173 295.685C882.23 295.726 882.298 295.749 882.369 295.749C882.439 295.749 882.508 295.726 882.564 295.685C882.621 295.643 882.663 295.584 882.684 295.517Z" fill="#FEFEFE"/>
<path d="M768.557 263.498L782.427 240.488C782.46 240.434 782.509 240.392 782.567 240.366C782.624 240.341 782.689 240.334 782.751 240.345C782.813 240.357 782.869 240.388 782.913 240.433C782.958 240.478 782.987 240.536 782.997 240.598L787.237 267.128C787.245 267.177 787.24 267.228 787.224 267.275C787.208 267.323 787.18 267.365 787.144 267.4C787.108 267.434 787.063 267.459 787.015 267.473C786.967 267.486 786.916 267.488 786.867 267.478L768.767 263.958C768.719 263.949 768.673 263.928 768.634 263.897C768.595 263.867 768.564 263.827 768.544 263.782C768.523 263.737 768.514 263.688 768.516 263.638C768.518 263.589 768.533 263.541 768.557 263.498Z" fill="#999999"/>
<path d="M413.827 295.636L389.507 303.566C389.19 303.67 388.913 303.869 388.713 304.135C388.513 304.402 388.399 304.723 388.387 305.056L387.927 317.176C387.915 317.509 387.801 317.831 387.601 318.097C387.401 318.363 387.124 318.562 386.807 318.666L375.907 322.196C375.654 322.278 375.384 322.297 375.121 322.251C374.859 322.205 374.612 322.095 374.401 321.931C374.191 321.768 374.024 321.555 373.916 321.311C373.807 321.068 373.759 320.802 373.777 320.536L378.557 248.556C378.579 248.232 378.697 247.921 378.897 247.665C379.096 247.408 379.368 247.217 379.677 247.116L388.637 244.176C388.947 244.074 389.28 244.067 389.594 244.156C389.908 244.245 390.187 244.426 390.397 244.676L436.587 300.176C436.757 300.379 436.875 300.621 436.93 300.88C436.986 301.14 436.977 301.408 436.905 301.664C436.833 301.919 436.7 302.153 436.518 302.345C436.335 302.537 436.108 302.681 435.857 302.766L424.937 306.406C424.617 306.512 424.272 306.516 423.95 306.417C423.627 306.319 423.343 306.123 423.137 305.856L415.617 296.186C415.411 295.921 415.129 295.727 414.809 295.628C414.489 295.53 414.146 295.533 413.827 295.636ZM388.877 290.796C388.876 290.85 388.888 290.903 388.912 290.951C388.936 290.999 388.97 291.041 389.013 291.073C389.056 291.105 389.106 291.127 389.159 291.136C389.212 291.145 389.266 291.142 389.317 291.126L406.687 285.516C406.739 285.5 406.787 285.471 406.826 285.433C406.864 285.394 406.893 285.347 406.91 285.295C406.927 285.243 406.93 285.188 406.921 285.134C406.912 285.08 406.89 285.03 406.857 284.986L390.487 264.016C390.445 263.961 390.387 263.919 390.32 263.898C390.254 263.877 390.182 263.877 390.116 263.898C390.049 263.918 389.99 263.959 389.948 264.014C389.905 264.069 389.88 264.136 389.877 264.206L388.877 290.796Z" fill="#FEFEFE"/>
<path d="M388.875 290.797L389.875 264.207C389.878 264.137 389.903 264.07 389.946 264.015C389.988 263.96 390.047 263.919 390.114 263.898C390.18 263.877 390.252 263.878 390.318 263.899C390.384 263.92 390.443 263.961 390.485 264.017L406.855 284.987C406.888 285.03 406.91 285.081 406.919 285.135C406.928 285.189 406.924 285.244 406.908 285.296C406.891 285.348 406.862 285.395 406.823 285.433C406.785 285.472 406.737 285.5 406.685 285.517L389.315 291.127C389.264 291.142 389.21 291.146 389.157 291.137C389.104 291.127 389.054 291.106 389.011 291.074C388.968 291.042 388.933 291 388.91 290.952C388.886 290.903 388.874 290.85 388.875 290.797Z" fill="#999999"/>
<path d="M707.489 386.457H576.009C575.71 386.457 575.469 386.699 575.469 386.997V399.977C575.469 400.275 575.71 400.517 576.009 400.517H707.489C707.787 400.517 708.029 400.275 708.029 399.977V386.997C708.029 386.699 707.787 386.457 707.489 386.457Z" fill="#FEFEFE"/>
<path d="M408.016 585.135C408.056 537.725 441.926 507.895 487.776 506.525C522.996 505.475 556.736 517.975 571.286 551.605C575.579 561.532 577.712 572.875 577.686 585.635C577.619 622.722 577.589 659.805 577.596 696.885C577.606 752.625 536.236 780.025 484.826 776.725C442.946 774.045 411.426 748.255 408.236 705.135C408.082 703.055 408.002 696.392 407.996 685.145C407.976 651.812 407.982 618.475 408.016 585.135ZM521.726 579.805C521.726 572.743 518.92 565.969 513.926 560.975C508.932 555.981 502.158 553.175 495.096 553.175H490.956C483.893 553.175 477.119 555.981 472.125 560.975C467.131 565.969 464.326 572.743 464.326 579.805V703.345C464.326 710.408 467.131 717.182 472.125 722.176C477.119 727.17 483.893 729.975 490.956 729.975H495.096C502.158 729.975 508.932 727.17 513.926 722.176C518.92 717.182 521.726 710.408 521.726 703.345V579.805Z" fill="#FEFEFE"/>
<path d="M745.306 719.447H690.766C690.656 719.447 690.549 719.486 690.463 719.557C690.378 719.628 690.319 719.727 690.296 719.837C688.562 728.523 686.752 737.203 684.866 745.877C681.886 759.607 674.566 771.047 659.256 771.857C653.922 772.143 642.726 772.137 625.666 771.837C625.232 771.83 625.016 771.61 625.016 771.177L625.056 756.317C625.056 755.937 625.196 755.617 625.476 755.357C630.316 750.823 633.486 745.337 634.986 738.897C652.592 663.63 670.222 588.37 687.876 513.117C687.962 512.77 688.182 512.597 688.536 512.597L747.986 512.477C748.286 512.477 748.469 512.623 748.536 512.917C765.382 584.703 782.206 656.487 799.006 728.267C802.006 741.077 803.116 747.787 811.146 755.687C811.286 755.828 811.365 756.015 811.366 756.207L811.446 771.247C811.452 771.687 811.236 771.91 810.796 771.917C801.462 772.023 792.136 772.037 782.816 771.957C777.402 771.91 773.246 771.393 770.346 770.407C756.666 765.757 753.866 755.887 750.736 741.467C749.182 734.347 747.632 727.217 746.086 720.077C745.992 719.657 745.732 719.447 745.306 719.447Z" fill="#FEFEFE"/>
<path d="M928.698 624.407C928.824 659.674 928.818 695.001 928.678 730.387C928.608 749.867 924.388 770.547 900.528 771.857C895.008 772.157 882.411 772.147 862.738 771.827C862.418 771.821 862.258 771.657 862.258 771.337L862.298 756.517C862.298 756.222 862.413 755.938 862.618 755.727C869.658 748.694 873.184 739.664 873.198 728.637C873.244 656.817 873.248 584.994 873.208 513.167C873.208 513.014 873.269 512.866 873.378 512.757C873.486 512.648 873.634 512.587 873.788 512.587L928.478 512.537C928.549 512.537 928.619 512.558 928.679 512.597C928.739 512.636 928.787 512.691 928.818 512.757L987.318 642.127C987.348 642.193 987.397 642.249 987.458 642.288C987.519 642.327 987.59 642.348 987.663 642.348C987.735 642.348 987.806 642.327 987.868 642.288C987.929 642.249 987.977 642.193 988.008 642.127L1046.34 513.147C1046.42 512.962 1046.56 512.805 1046.73 512.695C1046.9 512.585 1047.1 512.527 1047.3 512.527L1101.57 512.577C1101.97 512.577 1102.17 512.781 1102.17 513.187L1102.18 769.917C1102.18 770.1 1102.11 770.276 1101.98 770.405C1101.85 770.535 1101.67 770.607 1101.49 770.607L1047.4 770.577C1046.86 770.577 1046.6 770.307 1046.6 769.767L1046.58 624.377C1046.57 624.336 1046.56 624.296 1046.53 624.265C1046.5 624.234 1046.47 624.213 1046.42 624.205C1046.38 624.197 1046.34 624.202 1046.3 624.221C1046.27 624.24 1046.24 624.27 1046.22 624.307L1003.45 718.837C1003.36 719.02 1003.23 719.174 1003.06 719.283C1002.89 719.391 1002.7 719.448 1002.5 719.447H972.598C972.304 719.447 972.094 719.311 971.968 719.037L929.118 624.317C929.097 624.272 929.061 624.235 929.016 624.212C928.972 624.19 928.921 624.183 928.872 624.194C928.823 624.204 928.779 624.231 928.747 624.27C928.716 624.309 928.698 624.357 928.698 624.407Z" fill="#FEFEFE"/>
<path d="M309.169 644.345C309.122 644.361 309.082 644.391 309.053 644.431C309.025 644.471 309.01 644.52 309.011 644.569C309.012 644.618 309.029 644.666 309.059 644.705C309.09 644.744 309.132 644.772 309.179 644.785C326.579 649.999 337.262 660.835 341.229 677.295C342.136 681.048 342.589 686.475 342.589 693.575C342.596 706.515 342.622 719.452 342.669 732.385C342.689 738.172 344.382 743.732 347.749 749.065C349.139 751.265 351.309 753.525 353.129 755.735C353.336 755.988 353.439 756.275 353.439 756.595V771.295C353.439 771.695 353.242 771.895 352.849 771.895C341.976 772.055 331.119 772.052 320.279 771.885C294.929 771.495 289.079 751.915 289.179 730.375C289.239 716.802 289.262 703.222 289.249 689.635C289.229 674.515 280.209 665.065 265.219 665.205C255.999 665.285 246.779 665.095 237.549 665.305C237.169 665.312 236.979 665.505 236.979 665.885V769.885C236.979 770.073 236.904 770.254 236.771 770.387C236.638 770.52 236.457 770.595 236.269 770.595L182.009 770.585C181.818 770.585 181.635 770.51 181.5 770.377C181.365 770.244 181.289 770.063 181.289 769.875V513.385C181.289 513.185 181.368 512.994 181.508 512.851C181.648 512.709 181.839 512.628 182.039 512.625C214.119 512.505 246.196 512.505 278.269 512.625C307.709 512.735 334.309 529.575 340.029 559.625C341.869 569.305 341.419 582.725 341.559 590.495C342.049 617.835 337.189 635.165 309.169 644.345ZM236.859 556.295L237.099 626.575C237.099 626.636 237.123 626.695 237.166 626.738C237.21 626.781 237.268 626.805 237.329 626.805L268.789 626.695C271.297 626.687 273.778 626.187 276.092 625.223C278.406 624.258 280.506 622.849 282.274 621.075C284.041 619.302 285.44 617.198 286.392 614.885C287.343 612.572 287.828 610.095 287.819 607.595L287.699 574.915C287.681 569.87 285.653 565.038 282.062 561.483C278.471 557.927 273.61 555.939 268.549 555.955L237.089 556.065C237.028 556.065 236.97 556.089 236.926 556.133C236.883 556.176 236.859 556.234 236.859 556.295Z" fill="#FEFEFE"/>
<path d="M495.098 553.176H490.958C476.251 553.176 464.328 565.098 464.328 579.806V703.346C464.328 718.053 476.251 729.976 490.958 729.976H495.098C509.805 729.976 521.728 718.053 521.728 703.346V579.806C521.728 565.098 509.805 553.176 495.098 553.176Z" fill="#999999"/>
<path d="M236.859 556.297C236.859 556.236 236.884 556.178 236.927 556.134C236.97 556.091 237.028 556.067 237.089 556.067L268.549 555.957C273.611 555.941 278.471 557.929 282.062 561.485C285.653 565.04 287.681 569.872 287.699 574.917L287.819 607.597C287.829 610.097 287.344 612.574 286.392 614.887C285.441 617.2 284.041 619.304 282.274 621.077C280.507 622.851 278.406 624.26 276.093 625.225C273.779 626.189 271.297 626.689 268.789 626.697L237.329 626.807C237.268 626.807 237.21 626.783 237.167 626.74C237.124 626.697 237.099 626.638 237.099 626.577L236.859 556.297Z" fill="#999999"/>
<path d="M698.688 677.786L717.888 586.146C717.905 586.08 717.944 586.021 717.998 585.979C718.052 585.937 718.119 585.914 718.188 585.914C718.256 585.914 718.323 585.937 718.377 585.979C718.432 586.021 718.47 586.08 718.488 586.146L737.688 677.786C737.698 677.831 737.698 677.878 737.688 677.924C737.678 677.969 737.658 678.012 737.629 678.048C737.6 678.085 737.564 678.114 737.522 678.135C737.48 678.155 737.434 678.166 737.388 678.166H698.988C698.941 678.166 698.895 678.155 698.854 678.135C698.812 678.114 698.775 678.085 698.746 678.048C698.718 678.012 698.697 677.969 698.687 677.924C698.677 677.878 698.677 677.831 698.688 677.786Z" fill="#999999"/>
<path d="M707.276 882.898H576.156C575.742 882.898 575.406 883.234 575.406 883.648V896.128C575.406 896.543 575.742 896.878 576.156 896.878H707.276C707.69 896.878 708.026 896.543 708.026 896.128V883.648C708.026 883.234 707.69 882.898 707.276 882.898Z" fill="#FEFEFE"/>
<path d="M410.452 1003.19C410.401 1003.21 410.355 1003.24 410.319 1003.28C410.283 1003.32 410.258 1003.37 410.246 1003.43C410.234 1003.48 410.236 1003.54 410.251 1003.59C410.266 1003.65 410.294 1003.7 410.332 1003.74C421.442 1015.56 412.422 1035.5 396.662 1035.99C393.222 1036.09 387.562 1034.83 379.682 1032.19C372.942 1029.93 366.272 1027.62 359.672 1025.26C359.404 1025.16 359.184 1024.96 359.06 1024.71C358.937 1024.45 358.919 1024.15 359.012 1023.89L381.022 959.946C381.322 959.072 381.912 958.782 382.792 959.075C390.659 961.689 398.732 964.459 407.012 967.386C417.342 971.046 424.572 979.336 421.522 990.906C419.935 996.926 416.245 1001.02 410.452 1003.19ZM390.372 975.386L385.582 989.376C385.544 989.494 385.554 989.622 385.611 989.732C385.667 989.843 385.764 989.927 385.882 989.965L397.562 993.965C399.529 994.639 401.672 994.534 403.521 993.673C405.37 992.813 406.774 991.267 407.422 989.376L407.632 988.766C408.279 986.873 408.117 984.792 407.183 982.978C406.249 981.165 404.62 979.768 402.652 979.095L390.972 975.095C390.914 975.075 390.852 975.066 390.79 975.07C390.728 975.073 390.668 975.089 390.612 975.116C390.556 975.143 390.506 975.18 390.465 975.227C390.424 975.273 390.392 975.327 390.372 975.386ZM381.522 1001.1L376.022 1017.06C375.968 1017.21 375.979 1017.39 376.052 1017.54C376.125 1017.69 376.254 1017.8 376.412 1017.86L389.792 1022.47C390.922 1022.85 392.114 1023.03 393.298 1022.98C394.483 1022.93 395.637 1022.66 396.696 1022.19C397.755 1021.71 398.697 1021.03 399.468 1020.2C400.239 1019.36 400.825 1018.38 401.192 1017.32L401.512 1016.39C402.251 1014.23 402.055 1011.86 400.965 1009.78C399.876 1007.71 397.983 1006.1 395.702 1005.32L382.322 1000.71C382.164 1000.65 381.991 1000.66 381.841 1000.74C381.692 1000.81 381.577 1000.94 381.522 1001.1Z" fill="#FEFEFE"/>
<path d="M879.179 980.016C875.279 984.716 879.809 988.606 884.779 988.486C897.869 988.176 918.689 984.686 923.399 1001.66C927.479 1016.34 915.359 1027.21 902.189 1031.05C894.882 1033.17 886.826 1033.34 878.019 1031.56C876.472 1031.24 875.816 1030.44 876.049 1029.16C876.662 1025.77 877.526 1022.41 878.639 1019.08C878.758 1018.71 879.009 1018.4 879.344 1018.21C879.678 1018.02 880.072 1017.96 880.449 1018.05C889.679 1020.03 900.669 1018.97 907.829 1012.5C912.909 1007.91 909.509 1001.16 903.019 1001.14C897.266 1001.13 891.516 1001.23 885.769 1001.43C879.379 1001.66 872.439 1000.2 868.159 995.296C863.259 989.696 862.429 980.906 865.889 974.346C872.569 961.666 892.329 957.796 905.159 960.416C906.479 960.689 906.982 961.586 906.669 963.106C906.009 966.339 905.196 969.576 904.229 972.816C904.099 973.253 903.817 973.628 903.433 973.874C903.049 974.12 902.59 974.22 902.139 974.156C894.089 973.026 884.529 973.586 879.179 980.016Z" fill="#FEFEFE"/>
<path d="M390.375 975.387C390.395 975.328 390.427 975.274 390.468 975.228C390.509 975.182 390.559 975.144 390.615 975.117C390.67 975.09 390.731 975.075 390.793 975.071C390.855 975.068 390.917 975.076 390.975 975.097L402.655 979.097C404.622 979.769 406.252 981.166 407.186 982.98C408.12 984.793 408.282 986.875 407.635 988.767L407.425 989.377C406.776 991.268 405.373 992.814 403.524 993.675C401.675 994.536 399.532 994.641 397.565 993.967L385.885 989.967C385.767 989.928 385.67 989.844 385.614 989.734C385.557 989.623 385.547 989.495 385.585 989.377L390.375 975.387Z" fill="#999999"/>
<path d="M459.845 1027.37C455.655 1047.09 485.235 1054.09 489.815 1032.4C492.615 1019.14 495.385 1006.23 498.125 993.658C498.378 992.484 499.092 992.028 500.265 992.288L510.515 994.528C510.92 994.617 511.273 994.861 511.498 995.208C511.723 995.554 511.801 995.975 511.715 996.378C509.448 1007.19 507.102 1018.03 504.675 1028.9C502.722 1037.62 500.815 1043.6 498.955 1046.82C490.935 1060.69 471.815 1063.01 458.045 1054.62C449.365 1049.33 445.075 1040.61 445.435 1030.63C445.502 1028.85 446.355 1024.05 447.995 1016.23C450.302 1005.25 452.635 994.478 454.995 983.898C455.215 982.911 455.818 982.528 456.805 982.748L467.535 985.128C467.72 985.168 467.896 985.244 468.052 985.353C468.207 985.461 468.34 985.599 468.442 985.759C468.545 985.919 468.614 986.097 468.647 986.284C468.68 986.471 468.676 986.662 468.635 986.848C465.628 1000.38 462.698 1013.89 459.845 1027.37Z" fill="#FEFEFE"/>
<path d="M807.358 1034.74L812.128 1054.45C812.187 1054.69 812.197 1054.94 812.158 1055.19C812.118 1055.44 812.03 1055.68 811.898 1055.89C811.766 1056.1 811.592 1056.29 811.388 1056.43C811.184 1056.58 810.953 1056.68 810.708 1056.74L800.378 1059.06C800.012 1059.14 799.629 1059.07 799.311 1058.88C798.993 1058.68 798.766 1058.36 798.678 1058L783.088 992.688C782.995 992.291 783.062 991.873 783.275 991.523C783.488 991.173 783.83 990.92 784.228 990.818C792.281 988.792 800.468 986.891 808.788 985.118C825.188 981.618 837.488 992.748 837.938 1008.89C838.111 1014.91 835.828 1020.24 831.088 1024.89C830.801 1025.17 830.791 1025.47 831.058 1025.77L848.248 1045.27C848.436 1045.48 848.565 1045.74 848.623 1046.01C848.681 1046.29 848.666 1046.58 848.579 1046.85C848.492 1047.12 848.337 1047.36 848.128 1047.55C847.919 1047.74 847.664 1047.88 847.388 1047.94L835.128 1050.78C834.947 1050.82 834.758 1050.81 834.582 1050.75C834.405 1050.7 834.248 1050.59 834.128 1050.45L818.228 1032.15C818.107 1032.01 817.95 1031.9 817.774 1031.85C817.598 1031.79 817.41 1031.78 817.228 1031.82L807.868 1033.93C807.781 1033.95 807.698 1033.98 807.625 1034.03C807.552 1034.09 807.49 1034.15 807.443 1034.23C807.395 1034.3 807.363 1034.39 807.349 1034.47C807.334 1034.56 807.337 1034.65 807.358 1034.74ZM799.358 1001.12L804.118 1020.95C804.142 1021.05 804.207 1021.15 804.299 1021.2C804.391 1021.26 804.502 1021.28 804.608 1021.26L815.588 1018.62C816.955 1018.29 818.247 1017.71 819.391 1016.91C820.534 1016.11 821.507 1015.1 822.253 1013.95C822.998 1012.8 823.503 1011.52 823.737 1010.19C823.971 1008.86 823.931 1007.51 823.618 1006.21L823.418 1005.4C822.787 1002.77 821.086 1000.51 818.689 999.125C816.293 997.736 813.397 997.327 810.638 997.988L799.658 1000.62C799.605 1000.63 799.556 1000.65 799.512 1000.69C799.468 1000.72 799.431 1000.76 799.404 1000.81C799.376 1000.85 799.357 1000.9 799.349 1000.96C799.342 1001.01 799.345 1001.07 799.358 1001.12Z" fill="#FEFEFE"/>
<path d="M720.076 1015.1L721.676 1027.56C721.699 1027.74 721.759 1027.92 721.852 1028.08C721.944 1028.24 722.068 1028.39 722.216 1028.5C722.363 1028.62 722.532 1028.7 722.712 1028.75C722.893 1028.8 723.081 1028.81 723.266 1028.79L748.356 1025.62C748.541 1025.59 748.729 1025.61 748.909 1025.65C749.089 1025.7 749.258 1025.79 749.406 1025.9C749.554 1026.02 749.677 1026.16 749.77 1026.32C749.863 1026.48 749.922 1026.66 749.946 1026.85L751.206 1036.76C751.23 1036.94 751.217 1037.13 751.168 1037.31C751.119 1037.49 751.035 1037.66 750.921 1037.81C750.806 1037.95 750.664 1038.08 750.502 1038.17C750.34 1038.26 750.161 1038.32 749.976 1038.35L724.866 1041.5C724.494 1041.54 724.155 1041.74 723.925 1042.03C723.694 1042.33 723.591 1042.7 723.636 1043.08L725.196 1056.29C725.217 1056.47 725.275 1056.65 725.366 1056.82C725.458 1056.98 725.581 1057.13 725.729 1057.24C725.877 1057.36 726.047 1057.45 726.228 1057.5C726.41 1057.55 726.599 1057.56 726.786 1057.54L760.096 1053.44C760.283 1053.41 760.473 1053.43 760.655 1053.48C760.836 1053.53 761.005 1053.62 761.152 1053.74C761.299 1053.86 761.422 1054 761.511 1054.17C761.601 1054.34 761.657 1054.52 761.676 1054.71L762.666 1064.65C762.703 1065.01 762.595 1065.38 762.365 1065.67C762.136 1065.96 761.802 1066.15 761.436 1066.2L714.626 1072.05C714.441 1072.07 714.253 1072.06 714.072 1072.01C713.892 1071.96 713.723 1071.88 713.576 1071.76C713.428 1071.65 713.304 1071.5 713.212 1071.34C713.119 1071.18 713.059 1071 713.036 1070.82L704.746 1004.06C704.722 1003.87 704.735 1003.68 704.785 1003.5C704.835 1003.32 704.919 1003.15 705.035 1003C705.15 1002.86 705.293 1002.73 705.457 1002.64C705.62 1002.55 705.8 1002.49 705.986 1002.47L751.986 996.707C752.173 996.683 752.362 996.697 752.543 996.747C752.725 996.797 752.894 996.883 753.042 996.999C753.19 997.115 753.314 997.26 753.405 997.424C753.497 997.589 753.555 997.77 753.576 997.957L754.696 1007.98C754.738 1008.35 754.633 1008.72 754.403 1009.01C754.173 1009.31 753.836 1009.5 753.466 1009.55L721.316 1013.51C721.13 1013.53 720.95 1013.59 720.787 1013.68C720.623 1013.77 720.48 1013.9 720.365 1014.04C720.249 1014.19 720.164 1014.36 720.115 1014.54C720.065 1014.72 720.052 1014.91 720.076 1015.1Z" fill="#FEFEFE"/>
<path d="M799.357 1001.12C799.343 1001.06 799.34 1001.01 799.348 1000.95C799.356 1000.9 799.374 1000.85 799.402 1000.8C799.43 1000.76 799.467 1000.72 799.511 1000.68C799.554 1000.65 799.604 1000.63 799.657 1000.62L810.637 997.985C813.395 997.324 816.291 997.733 818.688 999.122C821.085 1000.51 822.785 1002.77 823.417 1005.4L823.617 1006.21C823.929 1007.51 823.97 1008.86 823.736 1010.19C823.501 1011.52 822.997 1012.79 822.251 1013.95C821.505 1015.1 820.533 1016.1 819.389 1016.91C818.246 1017.71 816.954 1018.29 815.587 1018.62L804.607 1021.26C804.5 1021.28 804.389 1021.26 804.297 1021.2C804.205 1021.14 804.14 1021.05 804.117 1020.95L799.357 1001.12Z" fill="#999999"/>
<path d="M550.193 1048.38L548.153 1068.34C548.006 1069.75 547.226 1070.38 545.813 1070.23L535.653 1069.13C534.653 1069.02 534.203 1068.46 534.303 1067.46L540.993 1001.14C541.046 1000.63 541.297 1000.16 541.692 999.838C542.087 999.514 542.594 999.359 543.103 999.407C549.043 999.98 554.926 1000.59 560.753 1001.23C567.823 1002 573.853 1002.52 579.483 1006.3C593.633 1015.82 591.413 1039.8 575.883 1046.87C575.679 1046.96 575.52 1047.13 575.439 1047.34C575.359 1047.55 575.364 1047.78 575.453 1047.99C578.313 1054.76 581.213 1061.62 584.153 1068.58C584.806 1070.12 585.169 1071.57 585.243 1072.93C585.252 1073.07 585.23 1073.21 585.179 1073.34C585.128 1073.48 585.048 1073.6 584.946 1073.7C584.843 1073.8 584.72 1073.87 584.585 1073.92C584.45 1073.97 584.306 1073.99 584.163 1073.98C580.523 1073.68 576.989 1073.36 573.563 1073.02C570.423 1072.71 570.173 1071.73 569.113 1069.12C566.466 1062.61 563.846 1056.09 561.253 1049.55C561.195 1049.4 561.097 1049.26 560.97 1049.16C560.843 1049.07 560.692 1049 560.533 1048.99L550.793 1047.9C550.433 1047.86 550.233 1048.02 550.193 1048.38ZM553.613 1014.14L551.603 1034.36C551.596 1034.42 551.601 1034.48 551.618 1034.54C551.635 1034.6 551.663 1034.65 551.701 1034.7C551.739 1034.74 551.787 1034.78 551.84 1034.81C551.893 1034.84 551.952 1034.86 552.013 1034.87L563.213 1035.99C564.617 1036.13 566.033 1036 567.382 1035.61C568.73 1035.23 569.984 1034.59 571.071 1033.73C572.159 1032.88 573.059 1031.83 573.72 1030.63C574.38 1029.44 574.789 1028.13 574.923 1026.79L574.993 1026.18C575.128 1024.83 574.985 1023.47 574.572 1022.17C574.159 1020.87 573.484 1019.66 572.586 1018.61C571.688 1017.55 570.584 1016.68 569.338 1016.03C568.092 1015.39 566.727 1014.99 565.323 1014.85L554.123 1013.73C554.062 1013.72 554.001 1013.73 553.943 1013.74C553.884 1013.76 553.83 1013.79 553.782 1013.83C553.735 1013.86 553.695 1013.91 553.666 1013.96C553.637 1014.02 553.619 1014.08 553.613 1014.14Z" fill="#FEFEFE"/>
<path d="M381.526 1001.1C381.581 1000.94 381.696 1000.81 381.846 1000.74C381.996 1000.66 382.169 1000.65 382.326 1000.71L395.706 1005.32C397.987 1006.1 399.88 1007.71 400.969 1009.79C402.059 1011.86 402.256 1014.24 401.516 1016.39L401.196 1017.32C400.83 1018.38 400.244 1019.36 399.472 1020.2C398.701 1021.03 397.759 1021.71 396.7 1022.19C395.641 1022.66 394.487 1022.94 393.302 1022.98C392.118 1023.03 390.926 1022.86 389.796 1022.47L376.416 1017.86C376.259 1017.8 376.129 1017.69 376.056 1017.54C375.983 1017.39 375.972 1017.21 376.026 1017.06L381.526 1001.1Z" fill="#999999"/>
<path d="M664.195 1022.59C656.435 1017.54 648.875 1016.13 640.275 1020.2C628.935 1025.57 624.465 1039.09 629.915 1050.22C635.475 1061.61 649.595 1066.19 660.755 1059.82C660.912 1059.73 661.043 1059.6 661.133 1059.44C661.222 1059.29 661.268 1059.11 661.265 1058.93L660.975 1044.14C660.97 1043.9 661.012 1043.66 661.099 1043.43C661.186 1043.21 661.317 1043.01 661.483 1042.83C661.649 1042.66 661.848 1042.52 662.068 1042.43C662.288 1042.33 662.525 1042.28 662.765 1042.28L672.195 1042.08C673.475 1042.05 674.135 1042.68 674.175 1043.97C674.415 1051.72 674.555 1059.36 674.595 1066.89C674.602 1068.3 674.108 1069.31 673.115 1069.92C666.608 1073.89 659.731 1076.06 652.485 1076.44C630.015 1077.6 612.415 1060.21 613.865 1037.63C614.835 1022.45 624.695 1010.4 639.035 1005.74C649.635 1002.29 660.138 1003.7 670.545 1009.98C671.492 1010.55 672.058 1011.39 672.245 1012.49C672.311 1012.89 672.235 1013.26 672.015 1013.6L666.525 1022.1C666.404 1022.28 666.248 1022.44 666.066 1022.57C665.883 1022.69 665.678 1022.78 665.462 1022.82C665.245 1022.87 665.022 1022.87 664.804 1022.83C664.587 1022.79 664.38 1022.71 664.195 1022.59Z" fill="#FEFEFE"/>
<path d="M553.615 1014.14C553.621 1014.08 553.639 1014.02 553.668 1013.96C553.697 1013.91 553.736 1013.86 553.784 1013.82C553.831 1013.79 553.886 1013.76 553.944 1013.74C554.003 1013.72 554.064 1013.72 554.125 1013.73L565.325 1014.85C566.729 1014.98 568.093 1015.39 569.34 1016.03C570.586 1016.68 571.69 1017.55 572.588 1018.6C573.486 1019.66 574.161 1020.87 574.574 1022.17C574.987 1023.47 575.13 1024.83 574.995 1026.18L574.925 1026.79C574.791 1028.13 574.382 1029.44 573.721 1030.63C573.061 1031.82 572.161 1032.88 571.073 1033.73C569.986 1034.59 568.732 1035.23 567.384 1035.61C566.035 1036 564.619 1036.13 563.215 1035.99L552.015 1034.87C551.954 1034.86 551.895 1034.84 551.842 1034.81C551.788 1034.78 551.741 1034.74 551.703 1034.7C551.665 1034.65 551.637 1034.59 551.62 1034.54C551.603 1034.48 551.598 1034.42 551.605 1034.36L553.615 1014.14Z" fill="#999999"/>
</svg>
